<svg width="19" height="19" viewBox="0 0 19 19" fill="none" xmlns="http://www.w3.org/2000/svg">
<path fill-rule="evenodd" clip-rule="evenodd" d="M2.74438 0C2.21395 0 1.70524 0.210714 1.33017 0.585786C0.955098 0.960859 0.744385 1.46957 0.744385 2V17C0.744385 17.5304 0.955098 18.0391 1.33017 18.4142C1.70524 18.7893 2.21395 19 2.74438 19H5.74438V17H2.74438V2H14.7444V6H16.7444V2C16.7444 1.46957 16.5337 0.960859 16.1586 0.585786C15.7835 0.210714 15.2748 0 14.7444 0H2.74438ZM5.74438 5C5.47917 5 5.22481 5.10536 5.03728 5.29289C4.84974 5.48043 4.74438 5.73478 4.74438 6C4.74438 6.26522 4.84974 6.51957 5.03728 6.70711C5.22481 6.89464 5.47917 7 5.74438 7H9.74438C10.0096 7 10.264 6.89464 10.4515 6.70711C10.639 6.51957 10.7444 6.26522 10.7444 6C10.7444 5.73478 10.639 5.48043 10.4515 5.29289C10.264 5.10536 10.0096 5 9.74438 5H5.74438ZM13.6934 8.811C14.2576 8.25603 15.0183 7.94648 15.8097 7.9498C16.6011 7.95311 17.3591 8.26902 17.9187 8.8287C18.4782 9.38838 18.794 10.1465 18.7971 10.9379C18.8002 11.7293 18.4905 12.4899 17.9354 13.054L12.2794 18.711C12.0919 18.8986 11.8376 19.0039 11.5724 19.004H8.74338C8.47817 19.004 8.22381 18.8986 8.03628 18.7111C7.84874 18.5236 7.74338 18.2692 7.74338 18.004V15.175C7.74344 14.9098 7.84883 14.6555 8.03638 14.468L13.6934 8.811ZM16.5214 10.225C16.3339 10.0375 16.0795 9.93221 15.8144 9.93221C15.5492 9.93221 15.2949 10.0375 15.1074 10.225L16.5214 11.64C16.6144 11.5471 16.6881 11.4368 16.7384 11.3154C16.7888 11.194 16.8147 11.0639 16.8147 10.9325C16.8147 10.8011 16.7888 10.671 16.7384 10.5496C16.6881 10.4282 16.6144 10.3179 16.5214 10.225ZM15.1074 13.054L13.6934 11.64L9.74338 15.59V17.004H11.1574L15.1074 13.054Z" fill="#7C7C7C"/>
</svg>
