<svg width="25" height="24" viewBox="0 0 25 24" fill="none" xmlns="http://www.w3.org/2000/svg">
<path d="M5.24438 17.5C5.64221 17.5 6.02374 17.658 6.30505 17.9393C6.58635 18.2206 6.74438 18.6022 6.74438 19C6.74438 19.3978 6.58635 19.7794 6.30505 20.0607C6.02374 20.342 5.64221 20.5 5.24438 20.5C4.84656 20.5 4.46503 20.342 4.18372 20.0607C3.90242 19.7794 3.74438 19.3978 3.74438 19C3.74438 18.6022 3.90242 18.2206 4.18372 17.9393C4.46503 17.658 4.84656 17.5 5.24438 17.5ZM20.7444 18C21.0096 18 21.264 18.1054 21.4515 18.2929C21.639 18.4804 21.7444 18.7348 21.7444 19C21.7444 19.2652 21.639 19.5196 21.4515 19.7071C21.264 19.8946 21.0096 20 20.7444 20H9.74438C9.47917 20 9.22481 19.8946 9.03728 19.7071C8.84974 19.5196 8.74438 19.2652 8.74438 19C8.74438 18.7348 8.84974 18.4804 9.03728 18.2929C9.22481 18.1054 9.47917 18 9.74438 18H20.7444ZM5.24438 10.5C5.64221 10.5 6.02374 10.658 6.30505 10.9393C6.58635 11.2206 6.74438 11.6022 6.74438 12C6.74438 12.3978 6.58635 12.7794 6.30505 13.0607C6.02374 13.342 5.64221 13.5 5.24438 13.5C4.84656 13.5 4.46503 13.342 4.18372 13.0607C3.90242 12.7794 3.74438 12.3978 3.74438 12C3.74438 11.6022 3.90242 11.2206 4.18372 10.9393C4.46503 10.658 4.84656 10.5 5.24438 10.5ZM20.7444 11C20.9993 11.0003 21.2444 11.0979 21.4298 11.2728C21.6151 11.4478 21.7266 11.687 21.7416 11.9414C21.7565 12.1958 21.6737 12.4464 21.5101 12.6418C21.3465 12.8373 21.1145 12.9629 20.8614 12.993L20.7444 13H9.74438C9.48951 12.9997 9.24435 12.9021 9.05902 12.7272C8.87368 12.5522 8.76215 12.313 8.74721 12.0586C8.73228 11.8042 8.81506 11.5536 8.97865 11.3582C9.14224 11.1627 9.37429 11.0371 9.62739 11.007L9.74438 11H20.7444ZM5.24438 3.5C5.64221 3.5 6.02374 3.65804 6.30505 3.93934C6.58635 4.22064 6.74438 4.60218 6.74438 5C6.74438 5.39782 6.58635 5.77936 6.30505 6.06066C6.02374 6.34196 5.64221 6.5 5.24438 6.5C4.84656 6.5 4.46503 6.34196 4.18372 6.06066C3.90242 5.77936 3.74438 5.39782 3.74438 5C3.74438 4.60218 3.90242 4.22064 4.18372 3.93934C4.46503 3.65804 4.84656 3.5 5.24438 3.5ZM20.7444 4C20.9993 4.00028 21.2444 4.09788 21.4298 4.27285C21.6151 4.44782 21.7266 4.68695 21.7416 4.94139C21.7565 5.19584 21.6737 5.44638 21.5101 5.64183C21.3465 5.83729 21.1145 5.9629 20.8614 5.993L20.7444 6H9.74438C9.48951 5.99972 9.24435 5.90212 9.05902 5.72715C8.87368 5.55218 8.76215 5.31305 8.74721 5.05861C8.73228 4.80416 8.81506 4.55362 8.97865 4.35817C9.14224 4.16271 9.37429 4.0371 9.62739 4.007L9.74438 4H20.7444Z" fill="#7C7C7C"/>
</svg>
