<svg width="50" height="50" viewBox="0 0 50 50" fill="none" xmlns="http://www.w3.org/2000/svg">
<g clip-path="url(#clip0_135_208)">
<path d="M24.9998 4.16675C36.5061 4.16675 45.8332 13.4938 45.8332 25.0001C45.8332 36.5063 36.5061 45.8334 24.9998 45.8334C13.4936 45.8334 4.1665 36.5063 4.1665 25.0001C4.1665 13.4938 13.4936 4.16675 24.9998 4.16675ZM24.9998 14.5834C24.4896 14.5835 23.997 14.7708 23.6157 15.1099C23.2344 15.449 22.9908 15.9162 22.9311 16.423L22.9165 16.6667V22.9167H16.6665C16.1355 22.9173 15.6248 23.1207 15.2387 23.4852C14.8525 23.8497 14.6202 24.3479 14.5891 24.878C14.5579 25.4081 14.7304 25.93 15.0712 26.3372C15.412 26.7444 15.8955 27.0061 16.4228 27.0688L16.6665 27.0834H22.9165V33.3334C22.9171 33.8644 23.1204 34.3751 23.4849 34.7613C23.8495 35.1474 24.3477 35.3797 24.8777 35.4109C25.4078 35.442 25.9298 35.2695 26.337 34.9287C26.7442 34.5879 27.0059 34.1044 27.0686 33.5772L27.0832 33.3334V27.0834H33.3332C33.8642 27.0828 34.3749 26.8795 34.761 26.515C35.1471 26.1505 35.3795 25.6523 35.4106 25.1222C35.4417 24.5921 35.2693 24.0701 34.9285 23.6629C34.5876 23.2557 34.1042 22.994 33.5769 22.9313L33.3332 22.9167H27.0832V16.6667C27.0832 16.1142 26.8637 15.5843 26.473 15.1936C26.0823 14.8029 25.5524 14.5834 24.9998 14.5834Z" fill="#3A7817"/>
</g>
<defs>
<clipPath id="clip0_135_208">
<rect width="50" height="50" fill="white"/>
</clipPath>
</defs>
</svg>
