<svg width="21" height="18" viewBox="0 0 21 18" fill="none" xmlns="http://www.w3.org/2000/svg">
<path fill-rule="evenodd" clip-rule="evenodd" d="M13.7444 1.19408V16.8061C13.7444 17.0083 13.6888 17.2066 13.5835 17.3792C13.4782 17.5519 13.3273 17.6921 13.1475 17.7846C12.9677 17.8771 12.7659 17.9182 12.5642 17.9035C12.3625 17.8888 12.1688 17.8187 12.0044 17.7011L5.42438 13.0001H2.74438C2.21395 13.0001 1.70524 12.7894 1.33017 12.4143C0.955098 12.0392 0.744385 11.5305 0.744385 11.0001V7.00008C0.744385 6.46964 0.955098 5.96094 1.33017 5.58586C1.70524 5.21079 2.21395 5.00008 2.74438 5.00008H5.42438L12.0044 0.300076C12.1688 0.182478 12.3624 0.112447 12.564 0.0976703C12.7655 0.0828941 12.9673 0.123944 13.1471 0.216314C13.3269 0.308684 13.4777 0.448803 13.5831 0.621288C13.6885 0.793773 13.7443 0.991954 13.7444 1.19408ZM11.7444 2.94408L6.58638 6.62608C6.24749 6.86879 5.84123 6.99955 5.42438 7.00008H2.74438V11.0001H5.42438C5.84101 11 6.24725 11.1301 6.58638 11.3721L11.7444 15.0571V2.94408ZM16.9994 3.86108C17.1763 3.6635 17.4244 3.54429 17.6892 3.52966C17.954 3.51503 18.2138 3.60619 18.4114 3.78308C19.1461 4.43903 19.7338 5.24295 20.1358 6.14206C20.5379 7.04118 20.7453 8.01516 20.7444 9.00008C20.7453 9.985 20.5379 10.959 20.1358 11.8581C19.7338 12.7572 19.1461 13.5611 18.4114 14.2171C18.3138 14.3061 18.1995 14.3749 18.0752 14.4195C17.9508 14.4641 17.8189 14.4837 17.6869 14.477C17.555 14.4703 17.4257 14.4376 17.3065 14.3806C17.1873 14.3237 17.0806 14.2437 16.9924 14.1453C16.9043 14.0469 16.8366 13.932 16.7931 13.8072C16.7497 13.6825 16.7314 13.5503 16.7393 13.4185C16.7472 13.2866 16.7811 13.1576 16.8391 13.0389C16.8972 12.9203 16.9782 12.8143 17.0774 12.7271C17.6026 12.2587 18.0226 11.6844 18.3099 11.0421C18.5973 10.3997 18.7453 9.70377 18.7444 9.00008C18.7444 7.52008 18.1024 6.19008 17.0774 5.27308C16.8798 5.09617 16.7606 4.84803 16.746 4.58323C16.7313 4.31843 16.8225 4.05867 16.9994 3.86108ZM16.4114 6.01908C16.8311 6.39393 17.1669 6.8533 17.3966 7.36704C17.6264 7.88079 17.7449 8.43731 17.7444 9.00008C17.7444 10.1851 17.2284 11.2501 16.4114 11.9811C16.2217 12.1495 15.9752 12.2396 15.7216 12.2331C15.4681 12.2265 15.2265 12.1239 15.0458 11.946C14.865 11.768 14.7587 11.5281 14.7482 11.2747C14.7377 11.0212 14.8239 10.7733 14.9894 10.5811L15.0774 10.4911C15.4874 10.1231 15.7444 9.59208 15.7444 9.00008C15.7456 8.48799 15.5493 7.99515 15.1964 7.62408L15.0774 7.50908C14.8826 7.33143 14.7659 7.08406 14.7526 6.82079C14.7393 6.55752 14.8304 6.29963 15.0063 6.10323C15.1821 5.90684 15.4284 5.78781 15.6915 5.77205C15.9546 5.75629 16.2134 5.84507 16.4114 6.01908Z" fill="#7C7C7C"/>
</svg>
