<svg width="8" height="5" viewBox="0 0 8 5" fill="none" xmlns="http://www.w3.org/2000/svg">
<path fill-rule="evenodd" clip-rule="evenodd" d="M0.464906 0.293202C0.652433 0.105731 0.906741 0.000415865 1.17191 0.000415865C1.43707 0.000415865 1.69138 0.105731 1.87891 0.293202L3.99991 2.4142L6.12091 0.293202C6.30841 0.105562 6.56278 9.3828e-05 6.82805 6.25745e-08C7.09332 -9.37028e-05 7.34776 0.105194 7.53541 0.292702C7.72305 0.48021 7.82851 0.734578 7.82861 0.999848C7.8287 1.26512 7.72341 1.51956 7.53591 1.7072L4.70691 4.5362C4.51938 4.72367 4.26507 4.82899 3.99991 4.82899C3.73474 4.82899 3.48043 4.72367 3.29291 4.5362L0.464906 1.7072C0.277435 1.51967 0.172119 1.26537 0.172119 1.0002C0.172119 0.735038 0.277435 0.48073 0.464906 0.293202Z" fill="#7C7C7C"/>
</svg>
