<svg width="281" height="103" viewBox="0 0 281 103" fill="none" xmlns="http://www.w3.org/2000/svg">
<g clip-path="url(#clip0_382_73)">
<path d="M77.127 87.3771C85.3876 77.7036 90.0186 64.6812 90.0227 51.1144C90.0267 37.5476 85.4034 24.5216 77.1485 14.8416C78.5414 18.5233 79.6879 22.3222 80.5779 26.2052C82.7543 34.2164 83.8434 42.5667 83.8065 50.9606C83.8392 59.3935 82.7504 67.7825 80.5779 75.8359C79.6847 79.7786 78.531 83.6369 77.127 87.3771Z" fill="#F5F5F5"/>
<path d="M12.405 15.4033C4.46561 24.9955 0.0254727 37.73 0.00010926 50.9809C-0.0252541 64.2319 4.36609 76.9888 12.2686 86.6212C11.055 83.1695 10.0588 79.6217 9.28759 76.0052C7.20647 68.0726 6.17017 59.8255 6.21328 51.5389C6.1761 43.1157 7.21312 34.7318 9.29118 26.6554C10.0933 22.8236 11.1339 19.0631 12.405 15.4033Z" fill="#F5F5F5"/>
<path d="M65.4609 12.3923C66.462 16.4618 67.2845 20.5868 67.9254 24.7515C69.5205 33.3188 70.3119 42.0586 70.2858 50.8205C70.3086 59.6538 69.5222 68.4651 67.9398 77.1084C67.2223 81.8464 66.3685 86.0721 65.5076 89.6204C65.956 88.976 66.4008 88.311 66.8277 87.6211C73.066 77.6578 76.5134 64.6336 76.5134 50.9527C76.5134 37.2717 73.0732 24.3177 66.8277 14.4164C66.3649 13.7266 65.9201 13.0533 65.4609 12.3923Z" fill="#F5F5F5"/>
<path d="M23.7515 13.3916C23.4717 13.8047 23.1954 14.2632 22.9228 14.7134C16.8603 24.7139 13.5205 37.7959 13.5205 51.543C13.5205 65.2901 16.8603 78.1573 22.9587 87.9223C23.217 88.3354 23.4788 88.7485 23.7443 89.1615C23.052 85.8776 22.3775 81.9699 21.7892 77.4922C20.3907 69.0889 19.7011 60.5495 19.7301 51.9933C19.714 43.1662 20.3984 34.3559 21.7749 25.6723C22.3417 21.2152 23.0233 17.0184 23.7515 13.3916Z" fill="#F5F5F5"/>
<path d="M52.938 6.49365C55.449 21.0499 56.7309 35.8518 56.7656 50.6924C56.7185 65.7424 55.4563 80.7548 52.9954 95.5356C54.4897 93.0099 55.7702 90.3251 56.8194 87.5179C60.7906 77.1539 62.9788 64.1214 62.9788 50.8246C62.9788 37.5278 60.7798 24.6234 56.7836 14.3916C55.7275 11.6214 54.4395 8.97627 52.938 6.49365Z" fill="#F5F5F5"/>
<path d="M35.8227 7.57983C34.5949 9.94051 33.5379 12.4135 32.6623 14.9738C29.075 25.2222 27.041 38.7173 27.041 51.9934C27.041 65.3605 29.0499 78.1905 32.6982 88.1084C33.5732 90.5321 34.6295 92.8637 35.855 95.0769C34.1284 80.9583 33.2594 66.7181 33.2542 52.4602C33.2967 37.453 34.1545 22.4636 35.8227 7.57983Z" fill="#F5F5F5"/>
<path d="M40.5615 52.4602C40.5615 78.5582 43.7327 98.9516 44.2672 102.202C44.9847 98.8359 49.458 76.9142 49.458 50.7171C49.458 24.5696 44.9201 3.34589 44.1632 0C41.822 17.358 40.618 34.8942 40.5615 52.4602Z" fill="#F5F5F5"/>
<path d="M145.472 55.8474C145.472 69.4788 138.879 76.6167 126.528 76.6167C114.252 76.6167 107.659 69.4582 107.659 55.8474C107.659 42.2367 114.252 35.0823 126.528 35.0823C138.804 35.0823 145.472 42.2367 145.472 55.8474ZM118.797 55.8474C118.797 63.6132 120.616 66.9302 126.528 66.9302C132.44 66.9302 134.334 63.5265 134.334 55.8474C134.334 48.0817 132.44 44.7647 126.528 44.7647C120.616 44.7647 118.797 48.0817 118.797 55.8474Z" fill="#F5F5F5"/>
<path d="M151.535 36.2141H162.673L161.385 46.4253H162.146C164.657 39.3576 169.346 35.0823 175.182 35.0823C181.471 35.0823 185.259 38.4819 186.776 45.376C189.352 39.0932 194.127 35.0823 200.049 35.0823C208.386 35.0823 212.479 40.8405 212.479 52.7081V75.4808H201.398V55.5005C201.398 48.3419 199.579 45.7272 195.26 45.7272C189.804 45.7272 187.454 49.9157 187.454 56.8801V75.4684H176.391V55.5005C176.391 48.3419 174.798 45.7272 170.479 45.7272C164.948 45.7272 162.587 49.9157 162.587 56.8801V75.4684H151.535V36.2141Z" fill="#F5F5F5"/>
<path d="M231.18 21.7316C231.18 26.1804 228.45 28.6216 224.888 28.6216C221.325 28.6216 218.599 26.1804 218.599 21.7316C218.599 17.1878 221.325 14.8374 224.888 14.8374C228.45 14.8374 231.18 17.1919 231.18 21.7316ZM230.419 36.2139V75.4806H219.431V36.2139H230.419Z" fill="#F5F5F5"/>
<path d="M274.296 55.8474C274.296 69.4788 267.702 76.6167 255.351 76.6167C243.075 76.6167 236.482 69.4582 236.482 55.8474C236.482 42.2367 243.075 35.0823 255.351 35.0823C267.627 35.0823 274.296 42.2367 274.296 55.8474ZM247.621 55.8474C247.621 63.6132 249.439 66.9302 255.351 66.9302C261.263 66.9302 263.157 63.5265 263.157 55.8474C263.157 48.0817 261.263 44.7647 255.351 44.7647C249.439 44.7647 247.621 48.0817 247.621 55.8474Z" fill="#F5F5F5"/>
<path d="M156.693 95.8907L161.698 81.4331H163.796L158.9 95.8907H156.693ZM159.043 92.3382V90.2109H166.558V92.3382H159.043ZM166.72 95.8907L161.823 81.4331H163.904L168.926 95.8907H166.72Z" fill="#F5F5F5"/>
<path d="M171.473 95.8907V81.4331H179.257V83.6224H173.535V87.6705H178.432V89.8598H173.535V95.8907H171.473Z" fill="#F5F5F5"/>
<path d="M182.235 95.8908V81.4332H186.647C187.436 81.4154 188.216 81.6136 188.925 82.0115C189.557 82.3737 190.09 82.928 190.468 83.6143C190.845 84.3249 191.037 85.1446 191.024 85.977C191.037 86.8178 190.833 87.6442 190.439 88.3522C190.043 89.0512 189.488 89.6125 188.835 89.9756C188.115 90.3775 187.322 90.5784 186.522 90.5621H184.298V95.8908H182.235ZM184.315 88.3522H186.755C187.125 88.3613 187.49 88.2594 187.815 88.0567C188.14 87.8539 188.414 87.5571 188.609 87.1956C188.813 86.8253 188.916 86.3942 188.907 85.9564C188.915 85.6367 188.861 85.3191 188.749 85.0263C188.637 84.7335 188.471 84.4728 188.262 84.2628C187.797 83.8095 187.202 83.5736 186.593 83.6019H184.315V88.3522ZM189.194 95.8908L186.253 90.0251L187.867 88.7446L191.544 95.8908H189.194Z" fill="#F5F5F5"/>
<path d="M194.539 95.8907V81.4331H196.62V95.8907H194.539Z" fill="#F5F5F5"/>
<path d="M205.911 96.1386C204.779 96.1646 203.663 95.8332 202.683 95.1802C201.75 94.5494 200.987 93.6347 200.476 92.5366C199.953 91.3347 199.68 90.0086 199.68 88.664C199.68 87.3194 199.953 85.9934 200.476 84.7915C200.986 83.6967 201.745 82.7827 202.672 82.1478C203.651 81.4916 204.768 81.1586 205.9 81.1853C206.688 81.1793 207.47 81.352 208.2 81.6934C208.903 82.0217 209.55 82.4932 210.108 83.0855C210.655 83.664 211.091 84.3674 211.389 85.1508L209.488 86.0389C209.275 85.5171 208.981 85.0452 208.62 84.6469C208.259 84.2444 207.836 83.9247 207.371 83.7051C206.791 83.4357 206.164 83.3271 205.541 83.3881C204.918 83.4491 204.316 83.678 203.784 84.0562C203.168 84.5201 202.672 85.1665 202.349 85.9274C201.985 86.777 201.803 87.7147 201.818 88.662C201.803 89.6132 201.985 90.5548 202.349 91.4089C202.678 92.1802 203.188 92.8309 203.82 93.2884C204.465 93.7494 205.213 93.986 205.972 93.9699C206.481 93.9737 206.986 93.8511 207.45 93.6106C207.913 93.3677 208.333 93.0272 208.688 92.6068C209.054 92.1763 209.35 91.6723 209.559 91.1197L211.461 92.0078C211.161 92.8228 210.724 93.5615 210.175 94.1817C209.627 94.8019 208.977 95.2915 208.264 95.6222C207.518 95.9735 206.718 96.1491 205.911 96.1386Z" fill="#F5F5F5"/>
<path d="M213.028 95.8907L218.033 81.4331H220.131L215.234 95.8907H213.028ZM215.378 92.3382V90.2109H222.911V92.3382H215.378ZM223.055 95.8907L218.158 81.4331H220.239L225.261 95.8907H223.055Z" fill="#F5F5F5"/>
<path d="M277.725 43.7566C277.077 43.7566 276.444 43.5354 275.905 43.121C275.367 42.7066 274.947 42.1176 274.699 41.4285C274.451 40.7393 274.386 39.981 274.513 39.2495C274.639 38.5179 274.951 37.8459 275.409 37.3185C275.867 36.791 276.451 36.4319 277.086 36.2863C277.721 36.1408 278.38 36.2155 278.978 36.5009C279.577 36.7864 280.088 37.2698 280.448 37.89C280.808 38.5102 281 39.2393 281 39.9852C280.999 40.9851 280.654 41.9437 280.04 42.6508C279.426 43.3578 278.593 43.7555 277.725 43.7566ZM277.725 36.9657C277.205 36.9648 276.697 37.1416 276.265 37.4735C275.832 37.8055 275.495 38.2777 275.296 38.8303C275.097 39.383 275.045 39.9913 275.146 40.5782C275.247 41.1652 275.497 41.7043 275.865 42.1274C276.232 42.5505 276.7 42.8386 277.21 42.9551C277.72 43.0717 278.248 43.0115 278.728 42.7821C279.208 42.5527 279.618 42.1645 279.906 41.6667C280.194 41.1688 280.348 40.5836 280.347 39.9852C280.346 39.1847 280.07 38.4173 279.578 37.8513C279.087 37.2852 278.42 36.9668 277.725 36.9657Z" fill="#F5F5F5"/>
<path d="M276.627 41.6872V38.2835H277.657C277.843 38.2788 278.028 38.3256 278.195 38.4198C278.343 38.5045 278.467 38.6346 278.554 38.7957C278.643 38.9644 278.69 39.1581 278.69 39.3555C278.69 39.5528 278.643 39.7465 278.554 39.9152C278.466 40.0769 278.342 40.2082 278.195 40.2952C278.025 40.39 277.839 40.438 277.65 40.4356H277.119V41.6749L276.627 41.6872ZM277.119 39.9152H277.693C277.782 39.9177 277.87 39.892 277.948 39.8408C278.022 39.7927 278.084 39.7246 278.131 39.6425C278.178 39.556 278.203 39.4557 278.202 39.3534C278.205 39.2757 278.192 39.1983 278.166 39.1269C278.139 39.0554 278.099 38.9917 278.048 38.9403C277.939 38.8346 277.799 38.78 277.657 38.7875H277.119V39.9152ZM278.267 41.6872L277.574 40.3076L277.955 40.006L278.823 41.6872H278.267Z" fill="#F5F5F5"/>
</g>
<defs>
<clipPath id="clip0_382_73">
<rect width="281" height="102.182" fill="white"/>
</clipPath>
</defs>
</svg>
