<svg width="22" height="14" viewBox="0 0 22 14" fill="none" xmlns="http://www.w3.org/2000/svg">
<path d="M18.369 11.912C18.921 12.2027 19.376 12.134 19.734 11.706C20.0913 11.2773 20.1373 10.806 19.872 10.292L17.961 6.708L16.295 10.831L18.369 11.912ZM13.061 11H15.145L17.584 4.973C17.736 4.59633 17.7617 4.29167 17.661 4.059C17.561 3.82567 17.371 3.65233 17.091 3.539L15.091 2.739C14.7877 2.61233 14.4943 2.59667 14.211 2.692C13.9283 2.78867 13.7703 3.00167 13.737 3.331L13.061 11ZM5.853 11H7.937L7.261 3.254C7.22767 2.994 7.076 2.81133 6.806 2.706C6.536 2.60067 6.236 2.61133 5.906 2.738L3.906 3.538C3.606 3.66467 3.43033 3.864 3.379 4.136C3.327 4.40667 3.36433 4.71133 3.491 5.05L5.853 11ZM2.63 11.912L4.703 10.831L3.076 6.708L1.126 10.369C0.834667 10.8957 0.884 11.351 1.274 11.735C1.664 12.1183 2.116 12.1773 2.63 11.912ZM8.937 11H12.061L12.849 2.088C12.8823 1.78467 12.8063 1.52733 12.621 1.316C12.4357 1.10533 12.1783 1 11.849 1H9.149C8.90033 1 8.664 1.096 8.44 1.288C8.216 1.48 8.119 1.72133 8.149 2.012L8.937 11ZM2.029 13.038C1.449 13.038 0.965667 12.8397 0.579 12.443C0.193 12.0463 0 11.5663 0 11.003C0 10.8163 0.0226666 10.6337 0.068 10.455C0.114 10.2763 0.178667 10.1017 0.262 9.931L2.576 5.5C2.356 4.92333 2.32933 4.35167 2.496 3.785C2.66267 3.21833 3.011 2.82733 3.541 2.612L5.541 1.812C5.82567 1.69 6.11667 1.62833 6.414 1.627C6.712 1.62567 6.97767 1.714 7.211 1.892C7.26433 1.37067 7.47367 0.925 7.839 0.555C8.20433 0.185 8.651 0 9.179 0H11.849C12.369 0 12.815 0.175333 13.187 0.526C13.559 0.876667 13.7847 1.30667 13.864 1.816C14.0593 1.62867 14.3057 1.55367 14.603 1.591C14.9003 1.629 15.185 1.70233 15.457 1.811L17.457 2.611C17.995 2.827 18.359 3.215 18.549 3.775C18.739 4.335 18.7097 4.89333 18.461 5.45L20.776 9.88C20.85 10.0253 20.912 10.171 20.962 10.317C21.012 10.463 21.037 10.615 21.037 10.773C21.037 11.395 20.8213 11.9283 20.39 12.373C19.9587 12.8163 19.4353 13.038 18.82 13.038C18.6687 13.038 18.525 13.0207 18.389 12.986C18.2523 12.9507 18.1157 12.8973 17.979 12.826L16.353 12H4.633L3.118 12.788C2.95267 12.8793 2.778 12.944 2.594 12.982C2.41 13.0193 2.22233 13.038 2.029 13.038Z" fill="#00312D"/>
</svg>
