<svg width="112" height="32" viewBox="0 0 112 32" fill="none" xmlns="http://www.w3.org/2000/svg">
<path d="M60.676 20.7372C60.6743 21.4967 60.4397 22.2632 59.7607 22.8372C59.0817 23.4112 57.911 23.8872 55.9685 23.8872H52.059V17.6187H55.7935C57.5365 17.6187 58.772 17.9722 59.5472 18.5235C59.9057 18.7643 60.1972 19.0921 60.3946 19.4762C60.592 19.8603 60.6888 20.2881 60.676 20.7197M57.526 13.1947C58.254 12.6697 58.6058 11.9277 58.611 10.8147C58.6092 10.05 58.3887 9.41473 57.841 8.88973C57.2932 8.36473 56.3535 8.05323 54.8433 8.05323H52.0783V13.9945H53.9753C55.6203 13.9945 56.7753 13.7022 57.5278 13.172M64.8778 21.1957C64.8883 18.2977 62.958 16.0945 59.8692 15.2492C60.704 14.824 61.362 14.3042 61.8467 13.6672C62.4907 12.815 62.8005 11.772 62.797 10.5557C62.8006 9.77154 62.638 8.99549 62.3197 8.27876C62.0015 7.56204 61.5349 6.92093 60.9507 6.39773C59.6872 5.26023 57.771 4.51998 55.1548 4.52173H47.95V27.4957H56.4287C59.4527 27.4957 61.5772 26.6732 62.944 25.4605C64.3107 24.2477 64.8988 22.6605 64.8988 21.1992M72.9522 31.9495H39.0547V0.0504761H72.9488L72.9522 31.9495ZM18.4573 13.2297C19.1835 12.7047 19.537 11.9627 19.5422 10.8497C19.5405 10.085 19.32 9.44973 18.7723 8.92473C18.2245 8.39973 17.2847 8.08823 15.7727 8.08823H13.0025V14.0295H14.8995C16.541 14.0295 17.6995 13.7372 18.452 13.207M20.475 18.541C19.7015 17.9897 18.4625 17.6362 16.723 17.6362H13.006V23.9047H16.9155C18.8405 23.9047 20.027 23.4497 20.706 22.8547C21.385 22.2597 21.6195 21.495 21.6213 20.7547C21.6142 19.8447 21.266 19.115 20.4925 18.5585M25.8405 21.2132C25.851 18.3152 23.919 16.112 20.8355 15.2667C21.6667 14.8415 22.3265 14.3217 22.8078 13.6847C23.4552 12.8325 23.7615 11.7895 23.7598 10.5732C23.7615 9.08048 23.1735 7.55623 21.9118 6.41523C20.65 5.27423 18.7337 4.53748 16.1367 4.53923H8.89V27.4957H17.3705C20.398 27.4957 22.519 26.6732 23.8857 25.4605C25.2525 24.2477 25.8457 22.6605 25.8405 21.1992M33.894 31.9495H0V0.0504761H33.894V31.9495ZM105.27 21.3445L104.744 21.6945C102.119 23.2975 99.267 24.1567 96.6718 24.155C91.1208 24.134 87.4668 20.844 87.4492 16.0595C87.4563 11.3765 91.273 7.90973 96.5283 7.89923C99.2057 7.90098 101.63 8.59223 104.512 10.1742L105.042 10.4647V6.18948L104.814 6.10198C101.565 4.81923 99.0482 4.24698 96.565 4.25048C92.722 4.24873 89.39 5.51748 87.01 7.66998C84.63 9.82248 83.2247 12.864 83.2265 16.357C83.2282 18.807 84.231 21.642 86.38 23.903C88.529 26.164 91.805 27.816 96.355 27.8142H96.3725C100.128 27.8142 102.732 26.9777 105.088 25.8192L105.287 25.7212L105.27 21.3445ZM112 31.9477H78.1077V0.0504761H112V31.9477Z" fill="#BFF202"/>
</svg>
