<svg width="16" height="16" viewBox="0 0 16 16" fill="none" xmlns="http://www.w3.org/2000/svg">
<path d="M0.5 16C0.358 16 0.239333 15.952 0.144 15.856C0.0480001 15.76 0 15.6413 0 15.5C0 15.3587 0.0480001 15.24 0.144 15.144C0.24 15.048 0.358667 15 0.5 15H13.5C13.642 15 13.7607 15.048 13.856 15.144C13.9513 15.24 13.9993 15.3587 14 15.5C14 15.6413 13.952 15.76 13.856 15.856C13.7607 15.9513 13.642 15.999 13.5 15.999L0.5 16ZM3.135 12.23C2.26567 12.23 1.52567 11.9347 0.915 11.344C0.305 10.7533 0 10.036 0 9.192V1.167C0 0.843666 0.113667 0.568333 0.341 0.341C0.568333 0.113667 0.843666 0 1.167 0H14.307C14.773 0 15.1717 0.157333 15.503 0.472C15.8343 0.786667 16 1.17433 16 1.635V3.865C16 4.325 15.8343 4.71267 15.503 5.028C15.1717 5.34267 14.7733 5.5 14.308 5.5H12.308V9.192C12.308 10.036 12.0027 10.7533 11.392 11.344C10.782 11.9353 10.0423 12.231 9.173 12.231L3.135 12.23ZM3.135 1H11.308H1H3.135ZM12.308 4.5H14.308C14.5 4.5 14.6633 4.439 14.798 4.317C14.9327 4.19567 15 4.045 15 3.865V1.635C15 1.455 14.9327 1.30433 14.798 1.183C14.6633 1.061 14.5 1 14.308 1H12.308V4.5ZM9.173 11.23C9.75967 11.23 10.2623 11.03 10.681 10.63C11.099 10.2293 11.308 9.74767 11.308 9.185V1H4.885V2.17L6.415 3.427C6.44833 3.46033 6.515 3.59367 6.615 3.827V6.847C6.615 6.98033 6.565 7.097 6.465 7.197C6.365 7.297 6.24833 7.347 6.115 7.347H2.885C2.75167 7.347 2.635 7.297 2.535 7.197C2.435 7.097 2.385 6.98033 2.385 6.847V3.827C2.385 3.79367 2.45167 3.66033 2.585 3.427L4.115 2.169V1H1V9.185C1 9.74767 1.209 10.2293 1.627 10.63C2.045 11.03 2.54767 11.23 3.135 11.23H9.173Z" fill="#00312D"/>
</svg>
