<svg width="178" height="67" viewBox="0 0 178 67" fill="none" xmlns="http://www.w3.org/2000/svg">
<path d="M89 64.8686C112.618 64.8686 134.077 61.5452 149.695 56.1186C157.496 53.4083 163.937 50.1398 168.463 46.4213C172.977 42.7132 175.801 38.368 175.801 33.5339C175.801 28.6998 172.977 24.3546 168.463 20.6464C163.937 16.9279 157.496 13.6595 149.695 10.9492C134.077 5.52263 112.618 2.19915 89 2.19915C65.3818 2.19915 43.9228 5.52263 28.3049 10.9492C20.5044 13.6595 14.0632 16.9279 9.53661 20.6464C5.02269 24.3546 2.19915 28.6998 2.19915 33.5339C2.19915 38.368 5.02269 42.7132 9.53661 46.4213C14.0632 50.1398 20.5044 53.4083 28.3049 56.1186C43.9228 61.5452 65.3818 64.8686 89 64.8686Z" stroke="#FAB104" stroke-width="3.6017"/>
<path d="M72.0653 24.5455V42H69.2528L61.0284 30.1108H60.8835V42H57.7216V24.5455H60.5511L68.767 36.4432H68.9205V24.5455H72.0653ZM87.2038 30.1193C87.0618 29.6591 86.8658 29.2472 86.6158 28.8835C86.3714 28.5142 86.076 28.1989 85.7294 27.9375C85.3885 27.6761 84.9964 27.4801 84.5533 27.3494C84.1101 27.2131 83.6271 27.1449 83.1044 27.1449C82.1669 27.1449 81.3317 27.3807 80.5987 27.8523C79.8658 28.3239 79.2891 29.017 78.8686 29.9318C78.4538 30.8409 78.2464 31.9489 78.2464 33.2557C78.2464 34.5739 78.4538 35.6903 78.8686 36.6051C79.2834 37.5199 79.8601 38.2159 80.5987 38.6932C81.3374 39.1648 82.1953 39.4006 83.1726 39.4006C84.0589 39.4006 84.826 39.2301 85.4737 38.8892C86.1271 38.5483 86.63 38.0653 86.9822 37.4403C87.3345 36.8097 87.5107 36.071 87.5107 35.2244L88.2266 35.3352H83.4879V32.8636H90.5703V34.9602C90.5703 36.4545 90.2521 37.7472 89.6158 38.8381C88.9794 39.929 88.1044 40.7699 86.9908 41.3608C85.8771 41.946 84.5987 42.2386 83.1555 42.2386C81.5476 42.2386 80.1357 41.8778 78.9197 41.1562C77.7095 40.429 76.7635 39.3977 76.0817 38.0625C75.4055 36.7216 75.0675 35.1307 75.0675 33.2898C75.0675 31.8807 75.2663 30.6222 75.6641 29.5142C76.0675 28.4062 76.63 27.4659 77.3516 26.6932C78.0732 25.9148 78.9197 25.3239 79.8913 24.9205C80.8629 24.5114 81.9197 24.3068 83.0618 24.3068C84.0277 24.3068 84.9283 24.4489 85.7635 24.733C86.5987 25.0114 87.3402 25.4091 87.9879 25.9261C88.6413 26.4432 89.1783 27.0568 89.5987 27.767C90.0192 28.4773 90.2947 29.2614 90.4254 30.1193H87.2038ZM93.6278 42V24.5455H104.81V27.196H96.7898V31.9347H104.043V34.5852H96.7898V42H93.6278ZM107.752 42H104.377L110.522 24.5455H114.425L120.579 42H117.204L112.542 28.125H112.406L107.752 42ZM107.863 35.1562H117.067V37.696H107.863V35.1562Z" fill="#040788"/>
</svg>
