<svg width="24" height="24" viewBox="0 0 24 24" fill="none" xmlns="http://www.w3.org/2000/svg">
<path fill-rule="evenodd" clip-rule="evenodd" d="M10.0001 4C9.46965 4 8.96094 4.21071 8.58587 4.58579C8.21079 4.96086 8.00008 5.46957 8.00008 6V7.043C6.9103 7.1873 5.89844 7.68673 5.12108 8.464L2.29308 11.293C2.19757 11.3852 2.12139 11.4956 2.06898 11.6176C2.01657 11.7396 1.98898 11.8708 1.98783 12.0036C1.98668 12.1364 2.01198 12.2681 2.06226 12.391C2.11254 12.5139 2.18679 12.6255 2.28069 12.7194C2.37458 12.8133 2.48623 12.8875 2.60913 12.9378C2.73202 12.9881 2.8637 13.0134 2.99648 13.0123C3.12926 13.0111 3.26048 12.9835 3.38249 12.9311C3.50449 12.8787 3.61483 12.8025 3.70708 12.707L6.53608 9.88C6.93776 9.47772 7.44548 9.19786 8.00008 9.073V12.719L7.37508 13.219C7.16795 13.3848 7.03514 13.626 7.00589 13.8897C6.97663 14.1534 7.05332 14.4179 7.21908 14.625C7.38484 14.8321 7.6261 14.9649 7.88977 14.9942C8.15345 15.0234 8.41795 14.9468 8.62508 14.781L11.5281 12.458C11.9125 12.1505 12.3968 11.9955 12.8884 12.0229C13.3799 12.0502 13.8441 12.2578 14.1921 12.606L14.4781 12.892L7.93308 17.8C7.75998 17.9298 7.54945 18 7.33308 18H3.00008C2.73486 18 2.48051 18.1054 2.29297 18.2929C2.10544 18.4804 2.00008 18.7348 2.00008 19C2.00008 19.2652 2.10544 19.5196 2.29297 19.7071C2.48051 19.8946 2.73486 20 3.00008 20H7.33308C7.98219 20 8.61379 19.7895 9.13308 19.4L15.0001 15H20.0001C20.5305 15 21.0392 14.7893 21.4143 14.4142C21.7894 14.0391 22.0001 13.5304 22.0001 13V6C22.0001 5.46957 21.7894 4.96086 21.4143 4.58579C21.0392 4.21071 20.5305 4 20.0001 4H10.0001ZM10.0001 11.12L10.2791 10.897C11.0477 10.2821 12.0161 9.97224 12.9989 10.0267C13.9818 10.0811 14.91 10.496 15.6061 11.192L15.8921 11.478C16.3131 11.899 16.5041 12.456 16.4751 13H20.0001V9H10.0001V11.12ZM20.0001 7V6H10.0001V7H20.0001Z" fill="#F5F5F5"/>
</svg>
