<svg width="14" height="16" viewBox="0 0 14 16" fill="none" xmlns="http://www.w3.org/2000/svg">
<path d="M3.62497 8C3.62497 8 3.43747 9.125 3.99997 11.375" stroke="#00312D" stroke-linecap="round"/>
<path d="M12.0876 3.5C12.5226 4.55375 13 5.99075 13 7.22675C13 8.68062 12.4956 11.5063 12.1319 13.3539C11.9279 14.3908 11.0136 15.125 9.95688 15.125H4.01575C2.97137 15.125 2.06462 14.4073 1.855 13.3843C1.49275 11.6143 1 8.90075 1 7.22675C1 5.84712 1.5415 4.487 2.06012 3.5" stroke="#00312D" stroke-linecap="round" stroke-linejoin="round"/>
<path d="M2.34505 1.42137C2.37907 1.36877 2.42572 1.32553 2.48074 1.29559C2.53577 1.26566 2.59741 1.24998 2.66005 1.25H11.3402C11.4028 1.24998 11.4645 1.26566 11.5195 1.29559C11.5745 1.32553 11.6212 1.36877 11.6552 1.42137L12.6253 2.92137C12.6619 2.978 12.6826 3.04346 12.6851 3.11085C12.6877 3.17824 12.672 3.24507 12.6398 3.3043C12.6075 3.36353 12.5599 3.41297 12.5019 3.44741C12.4439 3.48185 12.3777 3.50002 12.3103 3.5H1.68955C1.62212 3.50002 1.55592 3.48185 1.49794 3.44741C1.43996 3.41297 1.39234 3.36353 1.3601 3.3043C1.32785 3.24507 1.31218 3.17824 1.31472 3.11085C1.31726 3.04346 1.33793 2.978 1.37455 2.92137L2.34505 1.42137Z" stroke="#00312D"/>
</svg>
