<svg width="22" height="21" viewBox="0 0 22 21" fill="none" xmlns="http://www.w3.org/2000/svg">
<path d="M1.3151 11.698C1.2651 11.271 1.2401 11.057 1.2511 10.881C1.27784 10.4326 1.45476 10.0062 1.75336 9.67063C2.05195 9.33502 2.45484 9.10971 2.8971 9.031C3.0711 9 3.2861 9 3.7171 9H14.2841C14.7141 9 14.9291 9 15.1031 9.03C15.5454 9.10871 15.9482 9.33402 16.2468 9.66963C16.5454 10.0052 16.7224 10.4316 16.7491 10.88C16.7591 11.057 16.7351 11.27 16.6851 11.698L16.2841 15.126C16.127 16.4684 15.4824 17.7064 14.4728 18.6049C13.4631 19.5034 12.1587 19.9998 10.8071 20H7.1931C5.84153 19.9998 4.53708 19.5034 3.52742 18.6049C2.51776 17.7064 1.87319 16.4684 1.7161 15.126L1.3151 11.698Z" stroke="#00312D"/>
<path d="M16 16H18C18.394 16 18.7841 15.9224 19.1481 15.7716C19.512 15.6209 19.8427 15.3999 20.1213 15.1213C20.3999 14.8427 20.6209 14.512 20.7716 14.1481C20.9224 13.7841 21 13.394 21 13C21 12.606 20.9224 12.2159 20.7716 11.8519C20.6209 11.488 20.3999 11.1573 20.1213 10.8787C19.8427 10.6001 19.512 10.3791 19.1481 10.2284C18.7841 10.0776 18.394 10 18 10H16.5" stroke="#00312D"/>
<path d="M9.00001 1C8.86866 1.13131 8.76447 1.2872 8.69338 1.45879C8.62229 1.63037 8.58571 1.81427 8.58571 2C8.58571 2.18573 8.62229 2.36963 8.69338 2.54121C8.76447 2.7128 8.86866 2.86869 9.00001 3C9.13136 3.13131 9.23555 3.2872 9.30664 3.45879C9.37772 3.63037 9.41431 3.81427 9.41431 4C9.41431 4.18573 9.37772 4.36963 9.30664 4.54121C9.23555 4.7128 9.13136 4.86869 9.00001 5M4.00001 6.5L4.11601 6.384C4.36161 6.13882 4.51042 5.8132 4.53504 5.46704C4.55966 5.12088 4.45844 4.77747 4.25001 4.5C4.04178 4.22245 3.94069 3.87909 3.9653 3.53298C3.98992 3.18688 4.13859 2.86128 4.38401 2.616L4.50001 2.5M13.5 6.5L13.616 6.384C13.8616 6.13882 14.0104 5.8132 14.035 5.46704C14.0597 5.12088 13.9584 4.77747 13.75 4.5C13.5418 4.22245 13.4407 3.87909 13.4653 3.53298C13.4899 3.18688 13.6386 2.86128 13.884 2.616L14 2.5" stroke="#00312D" stroke-linecap="round" stroke-linejoin="round"/>
</svg>
