<svg width="205" height="32" viewBox="0 0 205 32" fill="none" xmlns="http://www.w3.org/2000/svg">
<path d="M162.147 1.20477C161.579 1.20477 161.119 1.66467 161.119 2.23171V9.43418H180.144L171.48 1.20546L162.147 1.20477ZM180.841 11.6131C180.841 11.4781 180.814 11.3444 180.763 11.2197C180.711 11.0949 180.636 10.9816 180.54 10.8862C180.445 10.7908 180.331 10.7153 180.206 10.6639C180.082 10.6125 179.948 10.5863 179.813 10.5868H172.612V29.6129L180.837 20.9448L180.841 11.6131ZM170.431 30.3017C170.997 30.3017 171.457 29.8412 171.457 29.2728V22.073H152.431L161.096 30.3004L170.431 30.3017ZM151.736 19.8947C151.736 20.4625 152.195 20.925 152.765 20.925H159.964V1.89758L151.737 10.563L151.736 19.8947Z" fill="#BFF202"/>
<path d="M64.5302 4.67804V13.4645H52.289V4.67804L47.8305 4.67407V26.8286H52.289V17.3109H64.5302V26.8286H68.9958V4.67804H64.5302ZM123.842 4.67804V26.8233H143.402L140.924 22.9247H128.313V17.3109H140.525V13.5558H128.313V8.48538H140.903L143.33 4.67804H123.842ZM31.2579 4.6727C26.6202 4.6727 24.2778 7.49216 24.2778 11.5946V19.8644C24.2778 24.6119 27.2964 26.8286 31.2348 26.8286L45.2228 26.827L42.6296 22.7775H32.099C29.8618 22.7775 28.8871 21.9689 28.8871 19.4651V11.9625C28.8871 9.54206 29.7076 8.59787 32.1585 8.59787H42.7395L45.2294 4.67275L31.2579 4.6727ZM104.277 4.66746C101.598 4.66746 98.8531 6.27731 98.8531 10.4181V11.4821C98.8531 15.799 101.494 17.4459 104.137 17.4571H113.413C114.377 17.4571 115.16 17.6173 115.16 19.2457L115.159 21.1269C115.134 22.5898 114.404 22.9247 113.381 22.9247H101.177L98.6773 26.8233H113.668C117.283 26.8233 119.737 25.0249 119.737 20.8708V19.3443C119.737 15.3278 117.457 13.4301 113.921 13.4301H105.064C104.082 13.4301 103.398 13.1621 103.398 11.7078V10.176C103.398 8.93728 103.867 8.48538 105.011 8.48538L116.633 8.48072L119.062 4.66211L104.277 4.66746ZM81.949 4.67804L71.4448 26.8273H76.4094L78.4553 22.253H89.87L91.9093 26.8273H96.8958L86.367 4.67804H81.949ZM84.1517 9.27676L88.188 18.4828H80.1413L84.1517 9.27676Z" fill="#BFF202"/>
</svg>
