<svg width="18" height="18" viewBox="0 0 18 18" fill="none" xmlns="http://www.w3.org/2000/svg">
<path d="M15.0599 0C15.5416 3.88649e-05 16.0072 0.173945 16.3709 0.489755C16.7347 0.805565 16.9722 1.24206 17.0399 1.719L17.0569 1.875L17.9319 15.875C17.965 16.4003 17.7896 16.9175 17.4438 17.3143C17.0981 17.7112 16.6098 17.9558 16.0849 17.995L15.9349 18H2.06592C1.53962 18 1.03451 17.7926 0.660123 17.4227C0.285732 17.0528 0.0722336 16.5503 0.065918 16.024L0.068918 15.875L0.943918 1.875C0.974011 1.39407 1.17673 0.940174 1.51479 0.596786C1.85285 0.253398 2.30352 0.0436091 2.78392 0.00600004L2.93992 0H15.0599ZM15.0599 2H2.93992L2.06492 16H15.9349L15.0599 2ZM11.9999 4C12.2651 4 12.5195 4.10536 12.707 4.29289C12.8946 4.48043 12.9999 4.73478 12.9999 5C12.9999 6.06087 12.5785 7.07828 11.8283 7.82843C11.0782 8.57857 10.0608 9 8.99992 9C7.93905 9 6.92164 8.57857 6.17149 7.82843C5.42135 7.07828 4.99992 6.06087 4.99992 5C4.99992 4.73478 5.10528 4.48043 5.29281 4.29289C5.48035 4.10536 5.7347 4 5.99992 4C6.26513 4 6.51949 4.10536 6.70702 4.29289C6.89456 4.48043 6.99992 4.73478 6.99992 5C6.9976 5.51898 7.1971 6.01855 7.5563 6.39315C7.91549 6.76776 8.40623 6.98807 8.92486 7.00754C9.44348 7.02701 9.94936 6.84412 10.3356 6.49751C10.7219 6.15089 10.9583 5.6677 10.9949 5.15L10.9999 5C10.9999 4.73478 11.1053 4.48043 11.2928 4.29289C11.4803 4.10536 11.7347 4 11.9999 4Z" fill="#7C7C7C"/>
</svg>
