<svg width="84" height="40" viewBox="0 0 84 40" fill="none" xmlns="http://www.w3.org/2000/svg">
<g clip-path="url(#clip0_4_72)">
<path d="M27.0849 0.863034C27.0849 0.845764 19.9447 0.863034 19.9447 0.863034C9.37575 0.863034 0.807617 9.43117 0.807617 20.0001C0.807617 30.5691 9.37575 39.1373 19.9447 39.1373L33.3698 39.126C36.7426 39.126 39.4767 36.4132 39.4767 33.0403L39.4838 21.3681L48.7631 36.004C50.018 37.9033 52.1722 39.1562 54.6191 39.1562C58.4927 39.1562 61.6331 36.016 61.6331 32.1423L61.631 21.368L70.9103 36.0038C72.1652 37.9031 74.3194 39.1561 76.7663 39.1561C80.6399 39.1561 83.7803 36.0158 83.7803 32.1421L83.7782 0.845764H79.0037V32.1425C79.0037 33.3781 78.002 34.3797 76.7664 34.3797C75.9942 34.3797 75.3133 33.9887 74.9113 33.3934L58.3952 7.37803C58.2929 7.22915 58.1456 7.11693 57.9749 7.05777C57.8042 6.99861 57.619 6.99562 57.4465 7.04922C57.274 7.10283 57.1231 7.21023 57.016 7.35571C56.9089 7.50119 56.8512 7.67712 56.8512 7.85778L56.8565 32.1426C56.8565 33.3782 55.8548 34.3799 54.6192 34.3799C53.847 34.3799 53.1663 33.9888 52.7641 33.3935L36.248 7.37803C36.1456 7.22918 35.9983 7.11699 35.8276 7.05785C35.6569 6.9987 35.4718 6.99572 35.2993 7.04932C35.1268 7.10292 34.9759 7.2103 34.8688 7.35576C34.7617 7.50122 34.7039 7.67713 34.7039 7.85778L34.7002 33.0405C34.7002 33.7753 34.1047 34.3707 33.37 34.3707L19.9448 34.3606C12.0139 34.3605 5.58436 27.931 5.58436 20.0001C5.58436 12.0693 12.0139 5.63966 19.9447 5.63966L27.0849 5.63439V0.863034Z" fill="#BFF202"/>
<path d="M27.8541 28.2265C28.0345 28.2265 28.2076 28.1548 28.3351 28.0273C28.4627 27.8997 28.5344 27.7267 28.5344 27.5462L28.5362 7.85748C28.5361 3.98403 31.6764 0.843628 35.55 0.843628C38.0056 0.843628 40.1666 2.10567 41.4196 4.01649L50.6666 18.5224L50.6833 7.8576C50.6833 3.98403 53.8235 0.843628 57.6972 0.843628C60.1528 0.843628 62.3137 2.10567 63.5668 4.01649L72.8137 18.5224V0.84571H77.6211L77.6125 32.1425C77.6124 32.3201 77.5565 32.4932 77.4526 32.6373C77.3487 32.7814 77.2021 32.8892 77.0336 32.9454C76.865 33.0015 76.6831 33.0033 76.5135 32.9503C76.3439 32.8973 76.1953 32.7924 76.0887 32.6503L59.5522 6.60671C59.1503 6.0117 58.4694 5.62037 57.6972 5.62037C56.4616 5.62037 55.4599 6.62202 55.4599 7.8576L55.4653 32.1425C55.4652 32.3201 55.4092 32.4932 55.3053 32.6373C55.2014 32.7814 55.0548 32.8891 54.8863 32.9453C54.7177 33.0015 54.5358 33.0032 54.3662 32.9502C54.1967 32.8973 54.048 32.7923 53.9414 32.6503L37.4052 6.60671C37.0031 6.0117 36.3223 5.62037 35.55 5.62037C34.3145 5.62037 33.3128 6.62202 33.3128 7.8576L33.3229 32.3349C33.3229 32.5153 33.2512 32.6883 33.1236 32.8159C32.9961 32.9435 32.823 33.0151 32.6426 33.0151L19.9443 33.0126C12.7814 33.0126 6.97461 27.163 6.97461 20.0002C6.97461 12.8373 12.7814 6.98762 19.9443 6.98762C19.9443 6.98762 27.0845 6.95982 27.0845 6.98762V11.8125L19.9443 11.8071C15.4195 11.8071 11.7514 15.4753 11.7514 20.0002C11.7514 24.5249 15.4195 28.2358 19.9443 28.2358L27.8541 28.2265Z" fill="#BFF202"/>
</g>
<defs>
<clipPath id="clip0_4_72">
<rect width="83" height="38.3128" fill="white" transform="translate(0.793457 0.843628)"/>
</clipPath>
</defs>
</svg>
