<svg width="18" height="18" viewBox="0 0 18 18" fill="none" xmlns="http://www.w3.org/2000/svg">
<path d="M13.1494 1.89477L15.1863 3.88424L9.94735 8.05265L8.99998 7.10529L13.14 1.89477H13.1494ZM13.1494 4.13598e-05C12.8695 -0.0018083 12.5926 0.0584028 12.3387 0.176344C12.0848 0.294286 11.8602 0.467027 11.681 0.682145L6.44209 7.24739L9.79577 10.6011L16.3705 5.37161C17.2231 4.65161 17.2894 3.35372 16.4936 2.55793L14.4947 0.558987C14.1158 0.180041 13.6326 4.13598e-05 13.1494 4.13598e-05ZM5.77893 7.92002L5.1063 8.59265C4.92868 8.77337 4.82915 9.01663 4.82915 9.27002C4.82915 9.52341 4.92868 9.76667 5.1063 9.94739L7.10525 11.9369C7.30419 12.1263 7.54104 12.2116 7.78735 12.2116C8.03367 12.2116 8.27051 12.1263 8.45998 11.9369L9.12314 11.2737L5.77893 7.92002ZM2.8421 12.3158C2.32105 12.3158 1.89473 12.7421 1.89473 13.2632C1.89473 13.7842 2.32105 14.2105 2.8421 14.2105C3.36315 14.2105 3.78946 13.7842 3.78946 13.2632C3.78946 12.7421 3.36315 12.3158 2.8421 12.3158ZM5.6842 13.2632C5.16315 13.2632 4.73683 13.6895 4.73683 14.2105C4.73683 14.7316 5.16315 15.1579 5.6842 15.1579C6.20525 15.1579 6.63156 14.7316 6.63156 14.2105C6.63156 13.6895 6.20525 13.2632 5.6842 13.2632ZM0.947366 15.1579C0.426315 15.1579 0 15.5842 0 16.1053C0 16.6263 0.426315 17.0526 0.947366 17.0526C1.46842 17.0526 1.89473 16.6263 1.89473 16.1053C1.89473 15.5842 1.46842 15.1579 0.947366 15.1579ZM3.78946 16.1053C3.26841 16.1053 2.8421 16.5316 2.8421 17.0526C2.8421 17.5737 3.26841 18 3.78946 18C4.31052 18 4.73683 17.5737 4.73683 17.0526C4.73683 16.5316 4.31052 16.1053 3.78946 16.1053Z" fill="#00312D"/>
</svg>
