<svg width="9" height="20" viewBox="0 0 9 20" fill="none" xmlns="http://www.w3.org/2000/svg">
<path fill-rule="evenodd" clip-rule="evenodd" d="M2.8375 1L1 8.8115V18.261C1 18.7175 1.34 19 1.653 19H6.847C7.1605 19 7.5 18.7175 7.5 18.261V8.8115L5.6625 1H2.8375ZM1.6525 1.67C1.6525 1.67 1.3875 1.692 1.1575 1.553C0.9815 1.447 0.8265 1.2465 0.8265 0.8695C0.8265 -5.96046e-08 1.2395 0 2.479 0H6.021C7.2605 0 7.6735 -1.19209e-07 7.6735 0.87C7.6735 1.2465 7.5185 1.447 7.3425 1.5535C7.1125 1.692 6.8475 1.6695 6.8475 1.6695L8.5 8.6955V18.2605C8.5 19.222 7.76 20 6.847 20H1.653C0.74 20 0 19.2215 0 18.261V8.696L1.6525 1.67Z" fill="#00312D"/>
<path fill-rule="evenodd" clip-rule="evenodd" d="M0.703119 9.91851L0.500119 9.46151C0.296619 9.00501 0.297119 9.00451 0.297119 9.00451H0.29812L0.300619 9.00301L0.307619 9.00001L0.331619 8.99001C0.459696 8.9369 0.589428 8.88787 0.720619 8.84301C1.04833 8.73011 1.38413 8.64219 1.72512 8.58001C2.48012 8.44501 3.56512 8.40501 4.33262 9.08801C4.80862 9.51201 5.56862 9.75201 6.27512 9.87801C6.67362 9.94794 7.07669 9.98872 7.48112 10H7.50012V11H7.46612L7.38212 10.9975C6.95218 10.9822 6.52381 10.9371 6.10012 10.8625C5.34862 10.7285 4.35812 10.4495 3.66762 9.83501C3.26812 9.48001 2.60362 9.43901 1.90012 9.56451C1.49626 9.63829 1.10127 9.75426 0.72162 9.91051L0.70612 9.91701L0.703119 9.91851Z" fill="#00312D"/>
<path d="M1.5 0.5H7L6.5 1.5H2L1.5 0.5Z" fill="#00312D"/>
</svg>
