<svg width="18" height="19" viewBox="0 0 18 19" fill="none" xmlns="http://www.w3.org/2000/svg">
<path fill-rule="evenodd" clip-rule="evenodd" d="M7.8 0.65C8.14619 0.390356 8.56726 0.25 9 0.25C9.43274 0.25 9.85381 0.390356 10.2 0.65L17.2 5.9C17.4484 6.08629 17.65 6.32786 17.7889 6.60557C17.9277 6.88328 18 7.18951 18 7.5V17C18 17.5304 17.7893 18.0391 17.4142 18.4142C17.0391 18.7893 16.5304 19 16 19H11.1C10.8083 19 10.5285 18.8841 10.3222 18.6778C10.1159 18.4715 10 18.1917 10 17.9V12C10 11.7348 9.89464 11.4804 9.70711 11.2929C9.51957 11.1054 9.26522 11 9 11C8.73478 11 8.48043 11.1054 8.29289 11.2929C8.10536 11.4804 8 11.7348 8 12V17.9C8 18.0445 7.97155 18.1875 7.91627 18.321C7.86099 18.4544 7.77996 18.5757 7.67782 18.6778C7.57567 18.78 7.45441 18.861 7.32095 18.9163C7.18749 18.9715 7.04445 19 6.9 19H2C1.46957 19 0.960859 18.7893 0.585786 18.4142C0.210714 18.0391 0 17.5304 0 17V7.5C0 7.18951 0.0722902 6.88328 0.211146 6.60557C0.350001 6.32786 0.551608 6.08629 0.8 5.9L7.8 0.65ZM9 2.25L2 7.5V17H6V12C6 11.2044 6.31607 10.4413 6.87868 9.87868C7.44129 9.31607 8.20435 9 9 9C9.79565 9 10.5587 9.31607 11.1213 9.87868C11.6839 10.4413 12 11.2044 12 12V17H16V7.5L9 2.25Z" fill="#7C7C7C"/>
</svg>
