<svg width="20" height="19" viewBox="0 0 20 19" fill="none" xmlns="http://www.w3.org/2000/svg">
<path d="M19 7.9375H18.0409C17.8921 5.90664 16.9803 4.00732 15.4888 2.62105C13.9972 1.23479 12.0363 0.464264 10 0.464264C7.9637 0.464264 6.00281 1.23479 4.51124 2.62105C3.01967 4.00732 2.10789 5.90664 1.95906 7.9375H1C0.850816 7.9375 0.707742 7.99676 0.602252 8.10225C0.496763 8.20774 0.4375 8.35082 0.4375 8.5C0.440845 10.2686 0.932923 12.0018 1.85939 13.5083C2.78585 15.0148 4.11066 16.236 5.6875 17.0369V17.5C5.6875 17.8481 5.82578 18.1819 6.07192 18.4281C6.31806 18.6742 6.6519 18.8125 7 18.8125H13C13.3481 18.8125 13.6819 18.6742 13.9281 18.4281C14.1742 18.1819 14.3125 17.8481 14.3125 17.5V17.0369C15.8893 16.236 17.2141 15.0148 18.1406 13.5083C19.0671 12.0018 19.5592 10.2686 19.5625 8.5C19.5625 8.35082 19.5032 8.20774 19.3977 8.10225C19.2923 7.99676 19.1492 7.9375 19 7.9375ZM14.335 3.08969C14.6072 3.30769 14.8626 3.54586 15.0991 3.80219C14.0549 4.12719 13.0879 4.66146 12.257 5.37243C11.4261 6.0834 10.7488 6.95617 10.2662 7.9375H7.12562C7.56865 6.52654 8.44958 5.29338 9.64068 4.41682C10.8318 3.54027 12.2711 3.0659 13.75 3.0625C13.945 3.0625 14.1409 3.07281 14.335 3.08969ZM15.8406 4.76313C16.4539 5.71687 16.8223 6.80724 16.9131 7.9375H11.545C12.0153 7.15043 12.6372 6.46456 13.3746 5.91965C14.1119 5.37474 14.9502 4.98163 15.8406 4.76313ZM10 1.5625C10.8594 1.5611 11.7115 1.72007 12.5125 2.03125C10.9652 2.2755 9.52204 2.96357 8.35815 4.01197C7.19426 5.06038 6.35966 6.42404 5.95563 7.9375H3.08687C3.23004 6.20166 4.02013 4.58295 5.30055 3.4022C6.58097 2.22145 8.25826 1.56484 10 1.5625ZM13.5156 16.1725C13.4176 16.2174 13.3346 16.2895 13.2764 16.3803C13.2183 16.471 13.1874 16.5766 13.1875 16.6844V17.5C13.1875 17.5497 13.1677 17.5974 13.1326 17.6326C13.0974 17.6677 13.0497 17.6875 13 17.6875H7C6.95027 17.6875 6.90258 17.6677 6.86742 17.6326C6.83225 17.5974 6.8125 17.5497 6.8125 17.5V16.6844C6.8126 16.5766 6.78173 16.471 6.72356 16.3803C6.66539 16.2895 6.58236 16.2174 6.48438 16.1725C5.10449 15.5361 3.9212 14.5403 3.05854 13.2894C2.19588 12.0384 1.68562 10.5785 1.58125 9.0625H18.4188C18.3144 10.5785 17.8041 12.0384 16.9415 13.2894C16.0788 14.5403 14.8955 15.5361 13.5156 16.1725Z" fill="#00312D"/>
</svg>
