<svg width="139" height="54" viewBox="0 0 139 54" fill="none" xmlns="http://www.w3.org/2000/svg">
<mask id="path-1-inside-1_4_99" fill="white">
<rect x="6.396" y="27.2718" width="28.4611" height="28.4611" rx="1.53844" transform="rotate(-45 6.396 27.2718)"/>
</mask>
<rect x="6.396" y="27.2718" width="28.4611" height="28.4611" rx="1.53844" transform="rotate(-45 6.396 27.2718)" stroke="#BFF202" stroke-width="4.61532" mask="url(#path-1-inside-1_4_99)"/>
<line x1="9.52896" y1="43.1727" x2="44.1438" y2="10.8654" stroke="#BFF202"/>
<path d="M55.3989 10.3029H59.4551C60.5102 10.3029 61.415 10.4007 62.1697 10.5963C62.9243 10.792 63.6091 11.1588 64.2239 11.6968C65.824 13.0664 66.6241 15.1486 66.6241 17.9435C66.6241 18.8659 66.5437 19.7078 66.383 20.4694C66.2223 21.2311 65.9743 21.9193 65.6389 22.5342C65.3035 23.1421 64.8738 23.6871 64.3497 24.1692C63.9375 24.5396 63.4868 24.8365 62.9977 25.0601C62.5085 25.2837 61.981 25.4409 61.415 25.5318C60.856 25.6226 60.2237 25.668 59.518 25.668H55.4618C54.8958 25.668 54.4696 25.5842 54.1831 25.4165C53.8966 25.2418 53.708 25.0007 53.6172 24.6933C53.5333 24.3789 53.4914 23.9736 53.4914 23.4775V12.2104C53.4914 11.5396 53.6416 11.054 53.9421 10.7535C54.2425 10.4531 54.7281 10.3029 55.3989 10.3029ZM56.6042 12.7659V23.1945H58.9625C59.4795 23.1945 59.8848 23.1805 60.1783 23.1526C60.4717 23.1246 60.7757 23.0548 61.0901 22.943C61.4045 22.8312 61.6771 22.674 61.9076 22.4713C62.9487 21.5909 63.4693 20.0747 63.4693 17.9226C63.4693 16.4063 63.2387 15.2709 62.7776 14.5162C62.3234 13.7616 61.7609 13.283 61.0901 13.0803C60.4193 12.8707 59.6088 12.7659 58.6585 12.7659H56.6042ZM77.147 20.8153H71.5502C71.5572 21.4651 71.6864 22.0381 71.938 22.5342C72.1965 23.0303 72.5354 23.4041 72.9546 23.6557C73.3809 23.9072 73.849 24.033 74.3591 24.033C74.7015 24.033 75.0124 23.9946 75.2919 23.9177C75.5784 23.8339 75.8544 23.7081 76.1199 23.5404C76.3854 23.3657 76.63 23.1805 76.8536 22.9849C77.0772 22.7892 77.3671 22.5237 77.7235 22.1883C77.8702 22.0626 78.0798 21.9997 78.3523 21.9997C78.6458 21.9997 78.8834 22.08 79.0651 22.2407C79.2467 22.4014 79.3376 22.6285 79.3376 22.922C79.3376 23.1805 79.2362 23.4845 79.0336 23.8339C78.831 24.1762 78.5235 24.5081 78.1113 24.8295C77.706 25.144 77.1924 25.406 76.5706 25.6156C75.9557 25.8252 75.2465 25.9301 74.4429 25.9301C72.6053 25.9301 71.1763 25.406 70.1562 24.3579C69.136 23.3098 68.626 21.8879 68.626 20.0921C68.626 19.2467 68.7517 18.4641 69.0033 17.7444C69.2548 17.0177 69.6217 16.3958 70.1038 15.8788C70.5859 15.3617 71.1798 14.9669 71.8856 14.6944C72.5913 14.4149 73.3739 14.2752 74.2333 14.2752C75.3513 14.2752 76.3085 14.5127 77.1051 14.9879C77.9087 15.456 78.5096 16.0639 78.9078 16.8116C79.3061 17.5592 79.5053 18.3208 79.5053 19.0964C79.5053 19.8161 79.2991 20.2843 78.8869 20.5009C78.4746 20.7105 77.8947 20.8153 77.147 20.8153ZM71.5502 19.1908H76.7383C76.6684 18.2125 76.4029 17.4824 75.9417 17.0002C75.4875 16.5111 74.8866 16.2666 74.139 16.2666C73.4263 16.2666 72.8393 16.5146 72.3782 17.0107C71.924 17.4998 71.648 18.2265 71.5502 19.1908ZM83.4042 16.0779L85.7205 22.5761L88.215 15.7949C88.4106 15.2499 88.6028 14.8656 88.7914 14.642C88.9801 14.4114 89.2666 14.2961 89.6509 14.2961C90.0142 14.2961 90.3217 14.4184 90.5732 14.663C90.8317 14.9075 90.961 15.1905 90.961 15.5119C90.961 15.6377 90.9365 15.7844 90.8876 15.9521C90.8457 16.1198 90.7933 16.277 90.7304 16.4238C90.6745 16.5705 90.6081 16.7382 90.5313 16.9269L87.7853 23.7395C87.7084 23.9352 87.6071 24.1832 87.4813 24.4837C87.3625 24.7841 87.2263 25.0427 87.0725 25.2593C86.9258 25.4689 86.7407 25.6331 86.5171 25.7519C86.3004 25.8707 86.0349 25.9301 85.7205 25.9301C85.3152 25.9301 84.9903 25.8392 84.7458 25.6575C84.5082 25.4689 84.33 25.2663 84.2112 25.0496C84.0994 24.8261 83.9073 24.3893 83.6348 23.7395L80.9097 17.0002C80.8468 16.8325 80.7804 16.6648 80.7106 16.4971C80.6477 16.3294 80.5918 16.1583 80.5429 15.9836C80.501 15.8089 80.48 15.6587 80.48 15.5329C80.48 15.3372 80.5394 15.1451 80.6582 14.9564C80.777 14.7608 80.9412 14.6036 81.1508 14.4848C81.3604 14.359 81.5875 14.2961 81.832 14.2961C82.3072 14.2961 82.6321 14.4324 82.8068 14.7049C82.9884 14.9774 83.1876 15.4351 83.4042 16.0779ZM66.5612 38.8153C66.5612 39.3044 66.4389 39.8355 66.1944 40.4084C65.9568 40.9744 65.5795 41.5334 65.0624 42.0854C64.5454 42.6304 63.8851 43.0741 63.0815 43.4165C62.278 43.7589 61.3417 43.9301 60.2726 43.9301C59.4621 43.9301 58.7249 43.8532 58.0611 43.6995C57.3973 43.5458 56.7929 43.3082 56.2479 42.9868C55.7099 42.6584 55.2138 42.2286 54.7596 41.6976C54.3543 41.2155 54.0084 40.6774 53.722 40.0835C53.4355 39.4826 53.2189 38.8433 53.0721 38.1655C52.9324 37.4877 52.8625 36.768 52.8625 36.0064C52.8625 34.7696 53.0407 33.6622 53.3971 32.6839C53.7604 31.7057 54.2775 30.8707 54.9482 30.179C55.619 29.4802 56.4051 28.9492 57.3065 28.5859C58.2078 28.2225 59.1686 28.0408 60.1887 28.0408C61.4325 28.0408 62.54 28.2889 63.5112 28.785C64.4825 29.2811 65.2266 29.896 65.7437 30.6296C66.2607 31.3563 66.5193 32.0446 66.5193 32.6944C66.5193 33.0508 66.3935 33.3652 66.142 33.6377C65.8904 33.9102 65.5865 34.0465 65.2301 34.0465C64.8318 34.0465 64.5314 33.9521 64.3287 33.7635C64.1331 33.5748 63.913 33.2499 63.6684 32.7887C63.2632 32.0271 62.7845 31.4576 62.2325 31.0803C61.6875 30.703 61.0133 30.5144 60.2097 30.5144C58.931 30.5144 57.9109 31 57.1493 31.9712C56.3946 32.9425 56.0173 34.3225 56.0173 36.1112C56.0173 37.3061 56.185 38.3018 56.5204 39.0983C56.8558 39.8879 57.3309 40.4783 57.9458 40.8696C58.5607 41.2609 59.2804 41.4565 60.1049 41.4565C60.9993 41.4565 61.7539 41.2364 62.3688 40.7962C62.9907 40.349 63.4588 39.6957 63.7733 38.8363C63.906 38.431 64.0702 38.1026 64.2659 37.8511C64.4615 37.5925 64.7759 37.4633 65.2092 37.4633C65.5795 37.4633 65.8974 37.5925 66.1629 37.8511C66.4284 38.1096 66.5612 38.431 66.5612 38.8153ZM76.3924 42.316C75.7007 42.854 75.0299 43.2593 74.38 43.5318C73.7372 43.7973 73.014 43.9301 72.2105 43.9301C71.4768 43.9301 70.8305 43.7868 70.2715 43.5003C69.7195 43.2069 69.2933 42.8121 68.9928 42.316C68.6923 41.8199 68.5421 41.2819 68.5421 40.7019C68.5421 39.9193 68.7902 39.252 69.2863 38.7C69.7824 38.148 70.4636 37.7777 71.3301 37.589C71.5117 37.5471 71.9624 37.4528 72.6821 37.3061C73.4018 37.1593 74.0167 37.0266 74.5268 36.9078C75.0438 36.782 75.6028 36.6318 76.2037 36.4571C76.1688 35.7025 76.0151 35.1505 75.7426 34.8011C75.4771 34.4447 74.9216 34.2666 74.0761 34.2666C73.3494 34.2666 72.8009 34.3679 72.4306 34.5705C72.0672 34.7731 71.7528 35.0771 71.4873 35.4824C71.2288 35.8876 71.0436 36.1566 70.9318 36.2894C70.827 36.4152 70.5964 36.4781 70.24 36.4781C69.9186 36.4781 69.6391 36.3767 69.4016 36.1741C69.171 35.9645 69.0557 35.699 69.0557 35.3775C69.0557 34.8745 69.2339 34.3853 69.5902 33.9102C69.9466 33.4351 70.5021 33.0438 71.2567 32.7363C72.0113 32.4289 72.9511 32.2752 74.0761 32.2752C75.3338 32.2752 76.3225 32.4254 77.0422 32.7259C77.7619 33.0193 78.2685 33.4875 78.562 34.1303C78.8624 34.7731 79.0127 35.6256 79.0127 36.6877C79.0127 37.3585 79.0092 37.9279 79.0022 38.3961C79.0022 38.8642 78.9987 39.3848 78.9917 39.9578C78.9917 40.4958 79.079 41.0583 79.2537 41.6452C79.4354 42.2251 79.5262 42.599 79.5262 42.7667C79.5262 43.0601 79.3865 43.3291 79.107 43.5737C78.8345 43.8113 78.5235 43.9301 78.1742 43.9301C77.8807 43.9301 77.5907 43.7938 77.3042 43.5213C77.0178 43.2418 76.7138 42.84 76.3924 42.316ZM76.2037 38.176C75.7845 38.3297 75.1731 38.4939 74.3696 38.6686C73.573 38.8363 73.021 38.9621 72.7136 39.0459C72.4061 39.1228 72.1126 39.28 71.8332 39.5175C71.5537 39.7481 71.4139 40.073 71.4139 40.4923C71.4139 40.9255 71.5781 41.2958 71.9065 41.6033C72.2349 41.9037 72.6646 42.054 73.1957 42.054C73.7617 42.054 74.2822 41.9317 74.7574 41.6871C75.2395 41.4356 75.5923 41.1142 75.8159 40.7229C76.0745 40.2896 76.2037 39.5769 76.2037 38.5847V38.176ZM84.7667 39.8005V42.1902C84.7667 42.7702 84.6305 43.2069 84.358 43.5003C84.0855 43.7868 83.7396 43.9301 83.3203 43.9301C82.9081 43.9301 82.5692 43.7833 82.3037 43.4899C82.0382 43.1964 81.9054 42.7632 81.9054 42.1902V34.2246C81.9054 32.939 82.3701 32.2961 83.2994 32.2961C83.7745 32.2961 84.1169 32.4464 84.3265 32.7468C84.5361 33.0473 84.6514 33.491 84.6724 34.0779C85.0148 33.491 85.3641 33.0473 85.7205 32.7468C86.0838 32.4464 86.566 32.2961 87.1669 32.2961C87.7678 32.2961 88.3512 32.4464 88.9172 32.7468C89.4832 33.0473 89.7662 33.4455 89.7662 33.9416C89.7662 34.291 89.6439 34.581 89.3993 34.8116C89.1618 35.0352 88.9032 35.147 88.6237 35.147C88.5189 35.147 88.2639 35.0841 87.8586 34.9583C87.4603 34.8255 87.1075 34.7592 86.8 34.7592C86.3808 34.7592 86.0384 34.871 85.7729 35.0946C85.5074 35.3112 85.3013 35.6361 85.1545 36.0693C85.0078 36.5025 84.9065 37.0196 84.8506 37.6205C84.7947 38.2144 84.7667 38.9411 84.7667 39.8005ZM98.7798 38.8153H93.183C93.19 39.4651 93.3192 40.0381 93.5708 40.5342C93.8293 41.0303 94.1682 41.4041 94.5874 41.6557C95.0137 41.9072 95.4818 42.033 95.9919 42.033C96.3343 42.033 96.6452 41.9946 96.9247 41.9177C97.2112 41.8339 97.4872 41.7081 97.7527 41.5404C98.0182 41.3657 98.2628 41.1805 98.4864 40.9849C98.71 40.7892 98.9999 40.5237 99.3563 40.1883C99.503 40.0626 99.7127 39.9997 99.9852 39.9997C100.279 39.9997 100.516 40.08 100.698 40.2407C100.88 40.4014 100.97 40.6285 100.97 40.922C100.97 41.1805 100.869 41.4845 100.666 41.8339C100.464 42.1762 100.156 42.5081 99.7441 42.8295C99.3388 43.144 98.8253 43.406 98.2034 43.6156C97.5885 43.8252 96.8793 43.9301 96.0757 43.9301C94.2381 43.9301 92.8092 43.406 91.789 42.3579C90.7689 41.3098 90.2588 39.8879 90.2588 38.0921C90.2588 37.2467 90.3846 36.4641 90.6361 35.7444C90.8876 35.0177 91.2545 34.3958 91.7366 33.8788C92.2187 33.3617 92.8127 32.9669 93.5184 32.6944C94.2241 32.4149 95.0067 32.2752 95.8661 32.2752C96.9841 32.2752 97.9414 32.5127 98.7379 32.9879C99.5415 33.456 100.142 34.0639 100.541 34.8116C100.939 35.5592 101.138 36.3208 101.138 37.0964C101.138 37.8161 100.932 38.2843 100.52 38.5009C100.107 38.7105 99.5275 38.8153 98.7798 38.8153ZM93.183 37.1908H98.3711C98.3012 36.2125 98.0357 35.4824 97.5745 35.0002C97.1203 34.5111 96.5194 34.2666 95.7718 34.2666C95.0591 34.2666 94.4721 34.5146 94.011 35.0107C93.5568 35.4998 93.2808 36.2265 93.183 37.1908ZM111.546 38.8153H105.949C105.956 39.4651 106.085 40.0381 106.337 40.5342C106.595 41.0303 106.934 41.4041 107.353 41.6557C107.78 41.9072 108.248 42.033 108.758 42.033C109.1 42.033 109.411 41.9946 109.691 41.9177C109.977 41.8339 110.253 41.7081 110.519 41.5404C110.784 41.3657 111.029 41.1805 111.252 40.9849C111.476 40.7892 111.766 40.5237 112.122 40.1883C112.269 40.0626 112.479 39.9997 112.751 39.9997C113.045 39.9997 113.282 40.08 113.464 40.2407C113.645 40.4014 113.736 40.6285 113.736 40.922C113.736 41.1805 113.635 41.4845 113.432 41.8339C113.23 42.1762 112.922 42.5081 112.51 42.8295C112.105 43.144 111.591 43.406 110.969 43.6156C110.354 43.8252 109.645 43.9301 108.842 43.9301C107.004 43.9301 105.575 43.406 104.555 42.3579C103.535 41.3098 103.025 39.8879 103.025 38.0921C103.025 37.2467 103.15 36.4641 103.402 35.7444C103.654 35.0177 104.02 34.3958 104.502 33.8788C104.985 33.3617 105.579 32.9669 106.284 32.6944C106.99 32.4149 107.773 32.2752 108.632 32.2752C109.75 32.2752 110.707 32.5127 111.504 32.9879C112.307 33.456 112.908 34.0639 113.307 34.8116C113.705 35.5592 113.904 36.3208 113.904 37.0964C113.904 37.8161 113.698 38.2843 113.286 38.5009C112.873 38.7105 112.293 38.8153 111.546 38.8153ZM105.949 37.1908H111.137C111.067 36.2125 110.802 35.4824 110.34 35.0002C109.886 34.5111 109.285 34.2666 108.538 34.2666C107.825 34.2666 107.238 34.5146 106.777 35.0107C106.323 35.4998 106.047 36.2265 105.949 37.1908ZM119.165 39.8005V42.1902C119.165 42.7702 119.029 43.2069 118.757 43.5003C118.484 43.7868 118.138 43.9301 117.719 43.9301C117.307 43.9301 116.968 43.7833 116.702 43.4899C116.437 43.1964 116.304 42.7632 116.304 42.1902V34.2246C116.304 32.939 116.769 32.2961 117.698 32.2961C118.173 32.2961 118.516 32.4464 118.725 32.7468C118.935 33.0473 119.05 33.491 119.071 34.0779C119.413 33.491 119.763 33.0473 120.119 32.7468C120.483 32.4464 120.965 32.2961 121.566 32.2961C122.166 32.2961 122.75 32.4464 123.316 32.7468C123.882 33.0473 124.165 33.4455 124.165 33.9416C124.165 34.291 124.043 34.581 123.798 34.8116C123.56 35.0352 123.302 35.147 123.022 35.147C122.918 35.147 122.663 35.0841 122.257 34.9583C121.859 34.8255 121.506 34.7592 121.199 34.7592C120.779 34.7592 120.437 34.871 120.172 35.0946C119.906 35.3112 119.7 35.6361 119.553 36.0693C119.406 36.5025 119.305 37.0196 119.249 37.6205C119.193 38.2144 119.165 38.9411 119.165 39.8005Z" fill="#BFF202"/>
</svg>
