<svg width="22" height="16" viewBox="0 0 22 16" fill="none" xmlns="http://www.w3.org/2000/svg">
<path d="M10.9999 5C11.7955 5 12.5586 5.31607 13.1212 5.87868C13.6838 6.44129 13.9999 7.20435 13.9999 8C13.9999 8.79565 13.6838 9.55871 13.1212 10.1213C12.5586 10.6839 11.7955 11 10.9999 11C10.2042 11 9.44117 10.6839 8.87856 10.1213C8.31595 9.55871 7.99988 8.79565 7.99988 8C7.99988 7.20435 8.31595 6.44129 8.87856 5.87868C9.44117 5.31607 10.2042 5 10.9999 5ZM10.9999 0.5C15.9999 0.5 20.2699 3.61 21.9999 8C20.2699 12.39 15.9999 15.5 10.9999 15.5C5.99988 15.5 1.72988 12.39 -0.00012207 8C1.72988 3.61 5.99988 0.5 10.9999 0.5ZM2.17988 8C2.98813 9.65031 4.24318 11.0407 5.80236 12.0133C7.36153 12.9858 9.16227 13.5013 10.9999 13.5013C12.8375 13.5013 14.6382 12.9858 16.1974 12.0133C17.7566 11.0407 19.0116 9.65031 19.8199 8C19.0116 6.34969 17.7566 4.95925 16.1974 3.98675C14.6382 3.01424 12.8375 2.49868 10.9999 2.49868C9.16227 2.49868 7.36153 3.01424 5.80236 3.98675C4.24318 4.95925 2.98813 6.34969 2.17988 8Z" fill="#969696"/>
</svg>
