<svg width="14" height="13" viewBox="0 0 14 13" fill="none" xmlns="http://www.w3.org/2000/svg">
<path d="M6.89331 3.82693L8.8974 5.83102L8.90694 5.72604C8.90694 4.67309 8.05124 3.81738 6.99829 3.81738L6.89331 3.82693Z" fill="#B3B3B3"/>
<path d="M6.99831 2.54464C8.75427 2.54464 10.1794 3.96978 10.1794 5.72574C10.1794 6.13611 10.0967 6.52738 9.95357 6.88683L11.8145 8.74778C12.7752 7.94614 13.5323 6.90911 13.9999 5.72574C12.8961 2.93275 10.1826 0.954102 6.99834 0.954102C6.10762 0.954102 5.25511 1.11315 4.46301 1.39944L5.83725 2.77049C6.19667 2.63053 6.58795 2.54464 6.99831 2.54464Z" fill="#B3B3B3"/>
<path d="M0.636087 0.811179L2.08667 2.26176L2.37616 2.55125C1.32639 3.37197 0.496129 4.4631 -0.00012207 5.72597C1.10055 8.51896 3.81719 10.4976 6.9983 10.4976C7.98445 10.4976 8.92604 10.3067 9.78813 9.96L10.0585 10.2304L11.9131 12.0882L12.7243 11.2802L1.44727 0L0.636087 0.811179ZM4.1544 4.3263L5.13736 5.30926C5.10873 5.44606 5.08964 5.58282 5.08964 5.72597C5.08964 6.77892 5.94534 7.63463 6.9983 7.63463C7.14145 7.63463 7.27824 7.61554 7.41185 7.58691L8.39481 8.56987C7.97171 8.77982 7.50093 8.90708 6.9983 8.90708C5.24233 8.90708 3.81719 7.48194 3.81719 5.72597C3.81719 5.22337 3.94445 4.75256 4.1544 4.3263Z" fill="#B3B3B3"/>
</svg>
