<svg width="25" height="25" viewBox="0 0 25 25" fill="none" xmlns="http://www.w3.org/2000/svg">
<g clip-path="url(#clip0_377_2755)">
<path d="M24.4298 12.7767C24.4298 11.7519 24.3467 11.0041 24.1667 10.2285H12.4641V14.8541H19.3333C19.1948 16.0036 18.447 17.7348 16.785 18.898L16.7617 19.0529L20.4619 21.9194L20.7182 21.9449C23.0725 19.7706 24.4298 16.5714 24.4298 12.7767Z" fill="#4285F4"/>
<path d="M12.4643 24.9644C15.8296 24.9644 18.6548 23.8565 20.7184 21.9453L16.7852 18.8984C15.7327 19.6324 14.32 20.1449 12.4643 20.1449C9.16817 20.1449 6.37065 17.9706 5.37341 14.9653L5.22724 14.9777L1.37978 17.9553L1.32947 18.0952C3.37913 22.1668 7.5893 24.9644 12.4643 24.9644Z" fill="#34A853"/>
<path d="M5.37332 14.9652C5.11019 14.1896 4.9579 13.3586 4.9579 12.5C4.9579 11.6413 5.11019 10.8104 5.35947 10.0348L5.3525 9.86966L1.45683 6.84424L1.32937 6.90487C0.484605 8.59449 -0.00012207 10.4919 -0.00012207 12.5C-0.00012207 14.5081 0.484605 16.4054 1.32937 18.095L5.37332 14.9652Z" fill="#FBBC05"/>
<path d="M12.4643 4.85514C14.8047 4.85514 16.3835 5.86612 17.2838 6.71098L20.8014 3.27636C18.641 1.26823 15.8296 0.0356445 12.4643 0.0356445C7.5893 0.0356445 3.37913 2.83316 1.32947 6.9048L5.35957 10.0348C6.37065 7.02949 9.16817 4.85514 12.4643 4.85514Z" fill="#EB4335"/>
</g>
<defs>
<clipPath id="clip0_377_2755">
<rect width="24.43" height="25" fill="white"/>
</clipPath>
</defs>
</svg>
