<svg width="25" height="25" viewBox="0 0 25 25" fill="none" xmlns="http://www.w3.org/2000/svg">
<g clip-path="url(#clip0_336_526)">
<path d="M24.4301 12.777C24.4301 11.7521 24.3469 11.0043 24.1669 10.2287H12.4644V14.8543H19.3335C19.1951 16.0038 18.4472 17.735 16.7853 18.8983L16.762 19.0531L20.4621 21.9196L20.7185 21.9452C23.0728 19.7708 24.4301 16.5716 24.4301 12.777Z" fill="#4285F4"/>
<path d="M12.4644 24.9643C15.8297 24.9643 18.6549 23.8563 20.7185 21.9452L16.7853 18.8983C15.7328 19.6323 14.3201 20.1447 12.4644 20.1447C9.16829 20.1447 6.37077 17.9704 5.37354 14.9652L5.22736 14.9776L1.37991 17.9552L1.32959 18.095C3.37925 22.1667 7.58942 24.9643 12.4644 24.9643Z" fill="#34A853"/>
<path d="M5.37344 14.9652C5.11031 14.1896 4.95803 13.3586 4.95803 12.5C4.95803 11.6413 5.11031 10.8104 5.35959 10.0348L5.35262 9.86966L1.45695 6.84424L1.32949 6.90487C0.484728 8.59449 0 10.4919 0 12.5C0 14.5081 0.484728 16.4054 1.32949 18.095L5.37344 14.9652Z" fill="#FBBC05"/>
<path d="M12.4644 4.85521C14.8049 4.85521 16.3836 5.8662 17.2839 6.71106L20.8016 3.27644C18.6412 1.26831 15.8297 0.0357208 12.4644 0.0357208C7.58942 0.0357208 3.37925 2.83324 1.32959 6.90487L5.35969 10.0348C6.37078 7.02957 9.16829 4.85521 12.4644 4.85521Z" fill="#EB4335"/>
</g>
<defs>
<clipPath id="clip0_336_526">
<rect width="24.43" height="25" fill="white"/>
</clipPath>
</defs>
</svg>
