<svg width="8" height="6" viewBox="0 0 8 6" fill="none" xmlns="http://www.w3.org/2000/svg">
<path fill-rule="evenodd" clip-rule="evenodd" d="M0.459536 0.216437C0.165713 0.355064 0.000651784 0.543056 0.000651784 0.739074C0.000651784 0.935091 0.165713 1.12308 0.459536 1.26171L3.78377 2.82962L0.459536 4.39753C0.165447 4.53614 0.000147056 4.72418 9.80729e-08 4.92028C-0.00014686 5.11637 0.16487 5.30446 0.458751 5.44317C0.752632 5.58188 1.1513 5.65985 1.56706 5.65992C1.98282 5.65999 2.38161 5.58216 2.67569 5.44354L7.10958 3.35226C7.4034 3.21363 7.56846 3.02564 7.56846 2.82962C7.56846 2.6336 7.4034 2.44561 7.10958 2.30698L2.67569 0.216437C2.38178 0.0778526 1.98321 0 1.56762 0C1.15202 0 0.753447 0.0778526 0.459536 0.216437Z" fill="#F5F5F5"/>
</svg>
