<svg width="39" height="34" viewBox="0 0 39 34" fill="none" xmlns="http://www.w3.org/2000/svg">
<path d="M0.00171379 10.607C0.00171379 10.3797 0.0920005 10.1617 0.252712 10.001C0.413423 9.84029 0.631393 9.75 0.858673 9.75H1.60937C2.85539 9.75 3.57181 10.5607 3.98657 11.3697C4.26937 11.9232 4.47333 12.5985 4.643 13.1847H22.2878C22.5526 13.1848 22.8138 13.2462 23.0509 13.3642C23.288 13.4822 23.4945 13.6535 23.6543 13.8648C23.814 14.076 23.9227 14.3214 23.9716 14.5816C24.0206 14.8419 24.0086 15.11 23.9366 15.3648L21.3726 24.4057C21.1686 25.123 20.7363 25.7542 20.1412 26.2036C19.5461 26.653 18.8207 26.8961 18.075 26.896H9.36999C8.61805 26.8963 7.88689 26.6493 7.28915 26.1931C6.69141 25.7369 6.26027 25.0968 6.06213 24.3714L4.96179 20.3352C4.95548 20.3171 4.94977 20.2988 4.94465 20.2803L3.1776 14.2867L3.00621 13.7092C2.83482 13.1161 2.684 12.5917 2.45776 12.1512C2.18525 11.6199 1.93501 11.4656 1.60766 11.4656H0.856959C0.62968 11.4656 0.411708 11.3753 0.250997 11.2146C0.0902863 11.0539 0 10.836 0 10.6087M6.59687 19.8176L7.71606 23.9241C7.81529 24.2866 8.03093 24.6065 8.32979 24.8344C8.62864 25.0624 8.99413 25.1857 9.36999 25.1855H18.0767C18.4494 25.1852 18.8118 25.0633 19.109 24.8385C19.4062 24.6136 19.622 24.2981 19.7238 23.9395L22.2878 14.8986H5.14861L6.59687 19.8176ZM12.0043 31.1791C12.0043 31.861 11.7334 32.5149 11.2513 32.997C10.7692 33.4791 10.1152 33.75 9.43341 33.75C8.75157 33.75 8.09765 33.4791 7.61552 32.997C7.13339 32.5149 6.86253 31.861 6.86253 31.1791C6.86253 30.4973 7.13339 29.8434 7.61552 29.3612C8.09765 28.8791 8.75157 28.6082 9.43341 28.6082C10.1152 28.6082 10.7692 28.8791 11.2513 29.3612C11.7334 29.8434 12.0043 30.4973 12.0043 31.1791ZM10.2904 31.1791C10.2904 30.9518 10.2001 30.7339 10.0394 30.5732C9.87866 30.4124 9.66069 30.3222 9.43341 30.3222C9.20613 30.3222 8.98816 30.4124 8.82744 30.5732C8.66673 30.7339 8.57645 30.9518 8.57645 31.1791C8.57645 31.4064 8.66673 31.6244 8.82744 31.7851C8.98816 31.9458 9.20613 32.0361 9.43341 32.0361C9.66069 32.0361 9.87866 31.9458 10.0394 31.7851C10.2001 31.6244 10.2904 31.4064 10.2904 31.1791ZM20.5739 31.1791C20.5739 31.861 20.303 32.5149 19.8209 32.997C19.3388 33.4791 18.6848 33.75 18.003 33.75C17.3212 33.75 16.6672 33.4791 16.1851 32.997C15.703 32.5149 15.4321 31.861 15.4321 31.1791C15.4321 30.4973 15.703 29.8434 16.1851 29.3612C16.6672 28.8791 17.3212 28.6082 18.003 28.6082C18.6848 28.6082 19.3388 28.8791 19.8209 29.3612C20.303 29.8434 20.5739 30.4973 20.5739 31.1791ZM18.86 31.1791C18.86 30.9518 18.7697 30.7339 18.609 30.5732C18.4482 30.4124 18.2303 30.3222 18.003 30.3222C17.7757 30.3222 17.5577 30.4124 17.397 30.5732C17.2363 30.7339 17.146 30.9518 17.146 31.1791C17.146 31.4064 17.2363 31.6244 17.397 31.7851C17.5577 31.9458 17.7757 32.0361 18.003 32.0361C18.2303 32.0361 18.4482 31.9458 18.609 31.7851C18.7697 31.6244 18.86 31.4064 18.86 31.1791Z" fill="#00312D"/>
<circle cx="24" cy="15.25" r="15" fill="#BFF202"/>
<path d="M24.2955 21.4091C23.7386 21.4053 23.1951 21.3087 22.6648 21.1193C22.1345 20.9261 21.6572 20.6136 21.233 20.1818C20.8087 19.7462 20.4716 19.1686 20.2216 18.4489C19.9716 17.7254 19.8485 16.8295 19.8523 15.7614C19.8523 14.7652 19.9583 13.8769 20.1705 13.0966C20.3826 12.3163 20.6875 11.6572 21.0852 11.1193C21.483 10.5777 21.9621 10.1648 22.5227 9.88068C23.0871 9.59659 23.7178 9.45455 24.4148 9.45455C25.1458 9.45455 25.7936 9.59848 26.358 9.88636C26.9261 10.1742 27.3845 10.5682 27.733 11.0682C28.0814 11.5644 28.2973 12.125 28.3807 12.75H26.3068C26.2008 12.303 25.983 11.947 25.6534 11.6818C25.3277 11.4129 24.9148 11.2784 24.4148 11.2784C23.608 11.2784 22.9867 11.6288 22.5511 12.3295C22.1193 13.0303 21.9015 13.9924 21.8977 15.2159H21.9773C22.1629 14.8826 22.4034 14.5966 22.6989 14.358C22.9943 14.1193 23.3277 13.9356 23.6989 13.8068C24.0739 13.6742 24.4697 13.608 24.8864 13.608C25.5682 13.608 26.1799 13.7708 26.7216 14.0966C27.267 14.4223 27.6989 14.8712 28.017 15.4432C28.3352 16.0114 28.4924 16.6629 28.4886 17.3977C28.4924 18.1629 28.3182 18.8504 27.9659 19.4602C27.6136 20.0663 27.1231 20.5436 26.4943 20.892C25.8655 21.2405 25.1326 21.4129 24.2955 21.4091ZM24.2841 19.7045C24.697 19.7045 25.0663 19.6042 25.392 19.4034C25.7178 19.2027 25.9754 18.9318 26.1648 18.5909C26.3542 18.25 26.447 17.8674 26.4432 17.4432C26.447 17.0265 26.3561 16.6496 26.1705 16.3125C25.9886 15.9754 25.7367 15.7083 25.4148 15.5114C25.0928 15.3144 24.7254 15.2159 24.3125 15.2159C24.0057 15.2159 23.7197 15.2746 23.4545 15.392C23.1894 15.5095 22.9583 15.6723 22.7614 15.8807C22.5644 16.0852 22.4091 16.3239 22.2955 16.5966C22.1856 16.8655 22.1288 17.1534 22.125 17.4602C22.1288 17.8655 22.2235 18.2386 22.4091 18.5795C22.5947 18.9205 22.8504 19.1932 23.1761 19.3977C23.5019 19.6023 23.8712 19.7045 24.2841 19.7045Z" fill="#00312D"/>
</svg>
