<svg width="33" height="32" viewBox="0 0 33 32" fill="none" xmlns="http://www.w3.org/2000/svg">
<path fill-rule="evenodd" clip-rule="evenodd" d="M16.2919 0.166992C7.54714 0.166992 0.458557 7.25558 0.458557 16.0003C0.458557 24.7451 7.54714 31.8337 16.2919 31.8337C25.0366 31.8337 32.1252 24.7451 32.1252 16.0003C32.1252 7.25558 25.0366 0.166992 16.2919 0.166992ZM10.7502 12.042C10.7502 11.3142 10.8936 10.5936 11.1721 9.92129C11.4506 9.24894 11.8587 8.63803 12.3733 8.12344C12.8879 7.60885 13.4988 7.20065 14.1712 6.92216C14.8435 6.64367 15.5641 6.50033 16.2919 6.50033C17.0196 6.50033 17.7402 6.64367 18.4126 6.92216C19.0849 7.20065 19.6958 7.60885 20.2104 8.12344C20.725 8.63803 21.1332 9.24894 21.4117 9.92129C21.6902 10.5936 21.8336 11.3142 21.8336 12.042C21.8336 13.5117 21.2497 14.9213 20.2104 15.9605C19.1712 16.9998 17.7616 17.5837 16.2919 17.5837C14.8221 17.5837 13.4126 16.9998 12.3733 15.9605C11.3341 14.9213 10.7502 13.5117 10.7502 12.042ZM26.2004 23.8917C25.0152 25.3826 23.5084 26.5864 21.7927 27.4133C20.0769 28.2402 18.1965 28.6688 16.2919 28.667C14.3873 28.6688 12.5069 28.2402 10.7911 27.4133C9.07537 26.5864 7.56862 25.3826 6.38339 23.8917C8.94997 22.0502 12.4523 20.7503 16.2919 20.7503C20.1315 20.7503 23.6338 22.0502 26.2004 23.8917Z" fill="#72BF01"/>
</svg>
