<svg width="16" height="18" viewBox="0 0 16 18" fill="none" xmlns="http://www.w3.org/2000/svg">
<path d="M15.5104 11.1698L13.7667 2.36776C13.7517 2.03926 13.4089 0.399007 8.03743 0.363757C2.52343 0.321007 2.28118 2.28001 2.27518 2.45251L0.491676 11.4735C0.430886 11.7627 0.434306 12.0616 0.501694 12.3493C0.569081 12.637 0.698794 12.9064 0.881676 13.1385C1.38316 13.7433 2.05014 14.1887 2.80093 14.4203C3.10234 14.6977 3.4723 14.8898 3.87268 14.9768C3.87268 14.9768 3.49993 17.6603 7.89118 17.6468C12.2817 17.634 12.1024 15.6825 12.2562 14.9123C12.6803 14.7978 13.0701 14.5816 13.3917 14.2823L13.3609 14.295C14.0151 14.0396 14.5919 13.6189 15.0349 13.074C15.2485 12.8106 15.4017 12.5036 15.4838 12.1746C15.566 11.8456 15.5751 11.5026 15.5104 11.1698ZM14.4229 12.6398C13.8109 13.4288 12.1999 14.3685 7.99993 14.3685C3.66943 14.3685 2.07493 13.4685 1.50043 12.714C1.37844 12.5709 1.28974 12.4024 1.24072 12.2209C1.19169 12.0393 1.18357 11.8491 1.21693 11.664L3.01618 2.56201C3.01843 2.54701 3.28168 1.11451 7.88218 1.11451H8.03218C11.9344 1.14001 12.9552 2.06926 13.0242 2.45776L14.7807 11.3408C14.8196 11.5704 14.8077 11.8059 14.7458 12.0305C14.6838 12.255 14.5734 12.4633 14.4222 12.6405" fill="#00312D"/>
</svg>
