<svg width="12" height="18" viewBox="0 0 12 18" fill="none" xmlns="http://www.w3.org/2000/svg">
<path d="M1.077 17.23C0.796333 17.23 0.559667 17.1337 0.367 16.941C0.173667 16.7477 0.0770001 16.511 0.0770001 16.231V11.931C0.0770001 10.6977 0.284 9.481 0.698 8.281C1.112 7.08233 1.771 5.897 2.675 4.725L1.925 4.802C1.41967 4.806 0.972667 4.62767 0.584 4.267C0.194667 3.907 0 3.47033 0 2.957V1.965C0 1.42167 0.227333 0.971999 0.682 0.615999C1.136 0.260665 1.62933 0.105332 2.162 0.149999L10.331 0.928999C10.5377 0.948999 10.701 1.03233 10.821 1.179C10.9403 1.32633 11 1.5 11 1.7V3.27C11 3.46867 10.9317 3.64467 10.795 3.798C10.6583 3.95133 10.4907 4.038 10.292 4.058L9.508 4.139C9.69133 4.769 9.91133 5.339 10.168 5.849C10.424 6.359 10.727 6.791 11.077 7.145C11.1837 7.25567 11.25 7.38 11.276 7.518C11.3027 7.65666 11.2813 7.785 11.212 7.903C11.1427 8.021 11.046 8.096 10.922 8.128C10.7987 8.16 10.682 8.12933 10.572 8.036C10.066 7.60133 9.648 7.04567 9.318 6.369C8.988 5.693 8.72567 4.97633 8.531 4.219L6.123 4.453C6.205 5.363 6.44633 6.272 6.847 7.18C7.24767 8.08733 7.72933 9.00467 8.292 9.932C8.56667 10.388 8.766 10.866 8.89 11.366C9.01467 11.866 9.077 12.3713 9.077 12.882V16.232C9.077 16.512 8.98033 16.7487 8.787 16.942C8.59433 17.1353 8.35767 17.232 8.077 17.232L1.077 17.23ZM1 2.1V2.88C1 3.18 1.10833 3.422 1.325 3.606C1.54167 3.79 1.8 3.865 2.1 3.831L10 3.081V1.9L2.1 1.15C1.8 1.11667 1.54167 1.19167 1.325 1.375C1.10833 1.55833 1 1.8 1 2.1ZM1.077 16.23H8.077V12.88C8.077 12.4213 8.026 11.9933 7.924 11.596C7.822 11.1987 7.65633 10.8083 7.427 10.425C6.731 9.25567 6.19433 8.21766 5.817 7.311C5.44033 6.40367 5.209 5.48533 5.123 4.556L3.95 4.662L3.127 5.781C2.47367 6.677 1.96867 7.651 1.612 8.703C1.25533 9.755 1.077 10.831 1.077 11.931V16.23Z" fill="#00312D"/>
</svg>
