<svg width="188" height="60" viewBox="0 0 188 60" fill="none" xmlns="http://www.w3.org/2000/svg">
<g clip-path="url(#clip0_2_18)">
<path d="M51.6011 51.0831C57.1278 45.4626 60.2261 37.8963 60.2288 30.0137C60.2315 22.1311 57.1384 14.5628 51.6155 8.93842C52.5474 11.0776 53.3144 13.2848 53.9099 15.5409C55.366 20.1956 56.0946 25.0473 56.0699 29.9244C56.0918 34.8241 55.3634 39.6982 53.9099 44.3774C53.3123 46.6682 52.5404 48.91 51.6011 51.0831Z" fill="#72BF01"/>
<path d="M8.2994 9.26483C2.98767 14.8381 0.0170422 22.2371 7.30993e-05 29.9362C-0.016896 37.6353 2.92109 45.0473 8.2082 50.6439C7.39623 48.6384 6.7297 46.5771 6.21376 44.4758C4.82141 39.8668 4.12809 35.075 4.15693 30.2604C4.13205 25.3663 4.82586 20.4951 6.21616 15.8025C6.75284 13.5762 7.44905 11.3913 8.2994 9.26483Z" fill="#72BF01"/>
<path d="M43.7959 7.5152C44.4656 9.87966 45.016 12.2763 45.4447 14.6961C46.5119 19.6739 47.0414 24.7519 47.024 29.8428C47.0392 34.9751 46.5131 40.0947 45.4543 45.1166C44.9743 47.8695 44.4031 50.3247 43.8271 52.3864C44.1271 52.012 44.4247 51.6255 44.7103 51.2247C48.884 45.4358 51.1904 37.8685 51.1904 29.9196C51.1904 21.9706 48.8888 14.4441 44.7103 8.69122C44.4007 8.29041 44.1031 7.8992 43.7959 7.5152Z" fill="#72BF01"/>
<path d="M15.8908 8.09601C15.7036 8.33601 15.5188 8.60242 15.3364 8.86402C11.2803 14.6745 9.0459 22.2754 9.0459 30.2628C9.0459 38.2501 11.2803 45.7262 15.3604 51.3999C15.5332 51.6399 15.7084 51.88 15.886 52.12C15.4228 50.2119 14.9716 47.9415 14.578 45.3398C13.6423 40.4573 13.181 35.4957 13.2004 30.5244C13.1896 25.3957 13.6475 20.2767 14.5684 15.2313C14.9476 12.6417 15.4036 10.2032 15.8908 8.09601Z" fill="#72BF01"/>
<path d="M35.4175 4.08795C37.0974 12.5455 37.9551 21.1457 37.9783 29.7684C37.9468 38.5127 37.1024 47.2352 35.4559 55.8232C36.4556 54.3557 37.3123 52.7958 38.0143 51.1647C40.6712 45.143 42.1352 37.5709 42.1352 29.8452C42.1352 22.1195 40.664 14.6217 37.9903 8.67683C37.2837 7.06729 36.4221 5.53041 35.4175 4.08795Z" fill="#72BF01"/>
<path d="M23.9666 4.71915C23.1452 6.09075 22.438 7.52762 21.8522 9.01522C19.4521 14.9697 18.0913 22.8107 18.0913 30.5244C18.0913 38.2909 19.4353 45.7454 21.8762 51.5079C22.4616 52.9162 23.1683 54.2709 23.9882 55.5568C22.8331 47.3536 22.2516 39.0798 22.2482 30.7956C22.2766 22.0761 22.8505 13.3669 23.9666 4.71915Z" fill="#72BF01"/>
<path d="M27.1372 30.7956C27.1372 45.9591 29.2588 57.8081 29.6164 59.6969C30.0965 57.7409 33.0893 45.0039 33.0893 29.7828C33.0893 14.5905 30.0533 2.25913 29.5468 0.315094C27.9805 10.4005 27.175 20.5894 27.1372 30.7956Z" fill="#72BF01"/>
<path d="M97.3267 32.7636C97.3267 40.6838 92.9154 44.831 84.652 44.831C76.4391 44.831 72.0278 40.6718 72.0278 32.7636C72.0278 24.8555 76.4391 20.6986 84.652 20.6986C92.865 20.6986 97.3267 24.8555 97.3267 32.7636ZM79.48 32.7636C79.48 37.2757 80.6968 39.203 84.652 39.203C88.6073 39.203 89.8745 37.2253 89.8745 32.7636C89.8745 28.2516 88.6073 26.3243 84.652 26.3243C80.6968 26.3243 79.48 28.2516 79.48 32.7636Z" fill="#00312D"/>
<path d="M101.383 21.3562H108.835L107.973 27.2892H108.482C110.162 23.1827 113.299 20.6986 117.204 20.6986C121.411 20.6986 123.946 22.6739 124.961 26.6795C126.684 23.0291 129.878 20.6986 133.841 20.6986C139.419 20.6986 142.157 24.0443 142.157 30.9396V44.171H134.743V32.562C134.743 28.4028 133.527 26.8835 130.637 26.8835C126.986 26.8835 125.414 29.3172 125.414 33.3637V44.1638H118.013V32.562C118.013 28.4028 116.947 26.8835 114.057 26.8835C110.357 26.8835 108.777 29.3172 108.777 33.3637V44.1638H101.383V21.3562Z" fill="#00312D"/>
<path d="M154.668 12.9417C154.668 15.5265 152.842 16.945 150.459 16.945C148.076 16.945 146.251 15.5265 146.251 12.9417C146.251 10.3017 148.076 8.93604 150.459 8.93604C152.842 8.93604 154.668 10.3041 154.668 12.9417ZM154.16 21.3562V44.171H146.808V21.3562H154.16Z" fill="#00312D"/>
<path d="M183.515 32.7636C183.515 40.6838 179.103 44.831 170.84 44.831C162.627 44.831 158.216 40.6718 158.216 32.7636C158.216 24.8555 162.627 20.6986 170.84 20.6986C179.053 20.6986 183.515 24.8555 183.515 32.7636ZM165.668 32.7636C165.668 37.2757 166.885 39.203 170.84 39.203C174.795 39.203 176.063 37.2253 176.063 32.7636C176.063 28.2516 174.795 26.3243 170.84 26.3243C166.885 26.3243 165.668 28.2516 165.668 32.7636Z" fill="#00312D"/>
<path d="M104.834 56.0296L108.182 47.6295H109.586L106.31 56.0296H104.834ZM106.406 53.9656V52.7295H111.434V53.9656H106.406ZM111.542 56.0296L108.266 47.6295H109.658L113.018 56.0296H111.542Z" fill="#00312D"/>
<path d="M114.722 56.0296V47.6295H119.93V48.9015H116.102V51.2535H119.378V52.5255H116.102V56.0296H114.722Z" fill="#00312D"/>
<path d="M121.922 56.0296V47.6295H124.874C125.402 47.6191 125.924 47.7343 126.398 47.9655C126.821 48.1759 127.178 48.498 127.43 48.8967C127.683 49.3096 127.812 49.7858 127.802 50.2695C127.811 50.7581 127.675 51.2382 127.411 51.6496C127.146 52.0557 126.775 52.3818 126.338 52.5928C125.856 52.8263 125.326 52.943 124.79 52.9336H123.302V56.0296H121.922ZM123.314 51.6496H124.946C125.194 51.6548 125.438 51.5957 125.656 51.4778C125.873 51.36 126.057 51.1876 126.187 50.9775C126.323 50.7624 126.392 50.5119 126.386 50.2575C126.391 50.0718 126.355 49.8873 126.281 49.7172C126.206 49.547 126.095 49.3955 125.954 49.2735C125.644 49.0102 125.245 48.8731 124.838 48.8895H123.314V51.6496ZM126.578 56.0296L124.61 52.6216L125.69 51.8776L128.15 56.0296H126.578Z" fill="#00312D"/>
<path d="M130.154 56.0296V47.6295H131.546V56.0296H130.154Z" fill="#00312D"/>
<path d="M137.762 56.1736C137.005 56.1888 136.258 55.9962 135.602 55.6168C134.979 55.2503 134.468 54.7188 134.126 54.0808C133.776 53.3825 133.594 52.612 133.594 51.8308C133.594 51.0495 133.776 50.2791 134.126 49.5807C134.467 48.9447 134.975 48.4136 135.595 48.0447C136.25 47.6634 136.998 47.47 137.755 47.4855C138.282 47.482 138.805 47.5823 139.294 47.7807C139.764 47.9714 140.197 48.2454 140.571 48.5895C140.936 48.9256 141.228 49.3343 141.427 49.7895L140.155 50.3055C140.013 50.0024 139.816 49.7281 139.575 49.4967C139.333 49.2629 139.05 49.0771 138.739 48.9495C138.351 48.793 137.932 48.7299 137.515 48.7654C137.098 48.8008 136.695 48.9338 136.339 49.1535C135.927 49.4231 135.596 49.7986 135.379 50.2407C135.136 50.7343 135.014 51.2792 135.024 51.8296C135.014 52.3822 135.136 52.9293 135.379 53.4256C135.6 53.8737 135.94 54.2518 136.363 54.5176C136.795 54.7855 137.295 54.923 137.803 54.9136C138.144 54.9158 138.481 54.8446 138.792 54.7048C139.102 54.5637 139.383 54.3659 139.62 54.1216C139.865 53.8715 140.063 53.5787 140.203 53.2576L141.475 53.7736C141.275 54.2471 140.982 54.6763 140.615 55.0367C140.248 55.397 139.814 55.6814 139.337 55.8736C138.837 56.0777 138.302 56.1797 137.762 56.1736Z" fill="#00312D"/>
<path d="M142.524 56.0296L145.872 47.6295H147.276L144 56.0296H142.524ZM144.096 53.9656V52.7295H149.136V53.9656H144.096ZM149.232 56.0296L145.956 47.6295H147.348L150.708 56.0296H149.232Z" fill="#00312D"/>
<path d="M185.809 25.7387C185.376 25.7387 184.952 25.6102 184.592 25.3694C184.231 25.1286 183.95 24.7864 183.784 24.386C183.619 23.9856 183.575 23.545 183.66 23.12C183.744 22.6949 183.953 22.3045 184.259 21.998C184.566 21.6916 184.956 21.4829 185.381 21.3983C185.806 21.3138 186.247 21.3572 186.647 21.523C187.048 21.6889 187.39 21.9697 187.631 22.3301C187.872 22.6904 188 23.1141 188 23.5475C188 24.1284 187.768 24.6854 187.358 25.0962C186.947 25.507 186.39 25.7381 185.809 25.7387ZM185.809 21.793C185.461 21.7926 185.121 21.8953 184.832 22.0881C184.543 22.281 184.317 22.5553 184.184 22.8765C184.051 23.1976 184.016 23.551 184.083 23.892C184.151 24.233 184.318 24.5463 184.564 24.7921C184.81 25.038 185.123 25.2053 185.464 25.2731C185.805 25.3408 186.159 25.3058 186.48 25.1725C186.801 25.0392 187.075 24.8137 187.268 24.5244C187.461 24.2351 187.564 23.8951 187.563 23.5475C187.563 23.0824 187.378 22.6365 187.049 22.3076C186.72 21.9787 186.274 21.7937 185.809 21.793Z" fill="#00312D"/>
<path d="M185.074 24.5363V22.5587H185.763C185.888 22.5559 186.011 22.5831 186.123 22.6379C186.222 22.687 186.305 22.7626 186.363 22.8563C186.423 22.9543 186.454 23.0668 186.454 23.1815C186.454 23.2962 186.423 23.4087 186.363 23.5067C186.304 23.6006 186.222 23.6769 186.123 23.7275C186.009 23.7825 185.885 23.8105 185.758 23.8091H185.403V24.5291L185.074 24.5363ZM185.403 23.5067H185.787C185.847 23.5081 185.906 23.4932 185.957 23.4635C186.007 23.4355 186.049 23.396 186.08 23.3483C186.112 23.298 186.128 23.2397 186.128 23.1803C186.13 23.1351 186.121 23.0902 186.103 23.0487C186.085 23.0071 186.059 22.9701 186.025 22.9403C185.952 22.8788 185.858 22.8471 185.763 22.8515H185.403V23.5067ZM186.171 24.5363L185.708 23.7347L185.962 23.5595L186.543 24.5363H186.171Z" fill="#00312D"/>
</g>
<defs>
<clipPath id="clip0_2_18">
<rect width="188" height="59.3698" fill="white" transform="translate(0 0.315094)"/>
</clipPath>
</defs>
</svg>
