<svg width="29" height="18" viewBox="0 0 29 18" fill="none" xmlns="http://www.w3.org/2000/svg">
<path d="M16.7666 4.0869H11.2972V13.9131H16.7666V4.0869Z" fill="#FF5A00"/>
<path d="M11.6613 9C11.6613 7.00362 12.5999 5.23174 14.04 4.0869C12.9801 3.25357 11.6431 2.74992 10.1848 2.74992C6.73002 2.74992 3.93469 5.54526 3.93469 9C3.93469 12.4547 6.73002 15.2501 10.1848 15.2501C11.6431 15.2501 12.9801 14.7464 14.04 13.9131C12.5978 12.7844 11.6613 10.9964 11.6613 9Z" fill="#EB001B"/>
<path d="M24.1456 9C24.1456 12.4547 21.3502 15.2501 17.8955 15.2501C16.4372 15.2501 15.1002 14.7464 14.0403 13.9131C15.4986 12.7663 16.4189 10.9964 16.4189 9C16.4189 7.00362 15.4804 5.23174 14.0403 4.0869C15.0981 3.25357 16.4351 2.74992 17.8935 2.74992C21.3502 2.74992 24.1456 5.56348 24.1456 9Z" fill="#F79E1B"/>
</svg>
