<svg width="18" height="18" viewBox="0 0 18 18" fill="none" xmlns="http://www.w3.org/2000/svg">
<path d="M6.5 18C5.786 18 5.19067 17.762 4.714 17.286C4.238 16.8087 4 16.2133 4 15.5C4 15.196 3.98567 14.9417 3.957 14.737C3.92767 14.5317 3.856 14.3717 3.742 14.257C3.628 14.1423 3.46833 14.0647 3.263 14.024C3.05833 13.9827 2.804 13.962 2.5 13.962C1.786 13.962 1.19067 13.73 0.714 13.266C0.238 12.8027 0 12.214 0 11.5C0 10.786 0.238 10.1907 0.714 9.714C1.19133 9.238 1.78667 9 2.5 9C2.768 9 3.022 9.034 3.262 9.102C3.502 9.17 3.70567 9.272 3.873 9.408C4.053 9.54867 4.26133 9.619 4.498 9.619C4.73467 9.619 4.93667 9.53567 5.104 9.369L9.292 5.181C9.45867 5.01433 9.555 4.80267 9.581 4.546C9.60633 4.29 9.54867 4.06567 9.408 3.873C9.28467 3.69233 9.186 3.48533 9.112 3.252C9.03733 3.01867 9 2.768 9 2.5C9 1.786 9.238 1.19067 9.714 0.714C10.1913 0.238 10.7867 0 11.5 0C12.214 0 12.8093 0.238 13.286 0.714C13.762 1.19133 14 1.78667 14 2.5C14 2.804 14.0143 3.05833 14.043 3.263C14.0723 3.46833 14.144 3.62833 14.258 3.743C14.372 3.85767 14.5317 3.929 14.737 3.957C14.9417 3.98567 15.196 4 15.5 4C16.214 4 16.8093 4.238 17.286 4.714C17.762 5.19133 18 5.78667 18 6.5C18 7.214 17.762 7.80933 17.286 8.286C16.8087 8.762 16.2133 9 15.5 9C15.232 9 14.9813 8.96267 14.748 8.888C14.5147 8.814 14.3077 8.71533 14.127 8.592C13.9343 8.464 13.7163 8.40967 13.473 8.429C13.2297 8.44833 13.0247 8.54133 12.858 8.708L8.708 12.858C8.54133 13.0247 8.445 13.22 8.419 13.444C8.39367 13.6687 8.43867 13.8833 8.554 14.088C8.664 14.2693 8.766 14.4827 8.86 14.728C8.95333 14.9747 9 15.232 9 15.5C9 16.214 8.762 16.8093 8.286 17.286C7.80867 17.762 7.21333 18 6.5 18ZM6.5 17C6.93333 17 7.29167 16.8583 7.575 16.575C7.85833 16.2917 8 15.9333 8 15.5C8 15.35 7.97933 15.2043 7.938 15.063C7.89667 14.9217 7.834 14.784 7.75 14.65C7.492 14.2633 7.382 13.8373 7.42 13.372C7.45667 12.9073 7.65 12.5 8 12.15L12.15 8C12.5 7.65 12.9073 7.45967 13.372 7.429C13.8367 7.39833 14.2627 7.50533 14.65 7.75C14.7833 7.83333 14.921 7.896 15.063 7.938C15.205 7.98 15.3507 8.00067 15.5 8C15.9333 8 16.2917 7.85833 16.575 7.575C16.8583 7.29167 17 6.93333 17 6.5C17 6.06667 16.8583 5.70833 16.575 5.425C16.2917 5.14167 15.9333 5 15.5 5C15.0193 5 14.627 4.96133 14.323 4.884C14.019 4.806 13.7613 4.66133 13.55 4.45C13.3387 4.23867 13.194 3.981 13.116 3.677C13.0387 3.37233 13 2.98 13 2.5C13 2.06667 12.8583 1.70833 12.575 1.425C12.2917 1.14167 11.9333 1 11.5 1C11.0667 1 10.7083 1.14167 10.425 1.425C10.1417 1.70833 10 2.06667 10 2.5C10 2.658 10.02 2.80567 10.06 2.943C10.1 3.081 10.1633 3.21667 10.25 3.35C10.508 3.73667 10.618 4.16267 10.58 4.628C10.5433 5.09267 10.35 5.5 10 5.85L5.85 10C5.5 10.35 5.09267 10.5403 4.628 10.571C4.16333 10.6017 3.73733 10.4947 3.35 10.25C3.21667 10.1667 3.07933 10.1043 2.938 10.063C2.79667 10.0217 2.65067 10.0007 2.5 10C2.06667 10 1.70833 10.1417 1.425 10.425C1.14167 10.7083 1 11.0667 1 11.5C1 11.9333 1.14167 12.2853 1.425 12.556C1.70833 12.8267 2.06667 12.962 2.5 12.962C2.98067 12.962 3.373 13.007 3.677 13.097C3.981 13.1877 4.23867 13.3387 4.45 13.55C4.66133 13.7613 4.806 14.0253 4.884 14.342C4.962 14.6587 5.00067 15.0573 5 15.538C5 15.9713 5.14167 16.3233 5.425 16.594C5.70833 16.8647 6.06667 17 6.5 17Z" fill="#00312D"/>
</svg>
