<svg width="26" height="26" viewBox="0 0 26 26" fill="none" xmlns="http://www.w3.org/2000/svg">
<circle cx="13" cy="13" r="12" fill="white"/>
<circle cx="13" cy="13" r="12.5" stroke="#7C7C7C" stroke-opacity="0.5"/>
<path d="M13.3986 16.3762C16.0127 16.3762 18.3894 16.0311 20.1212 15.4665C20.9857 15.1847 21.7032 14.8437 22.2098 14.4532C22.713 14.0653 23.045 13.5981 23.045 13.0642C23.045 12.5302 22.713 12.063 22.2098 11.6752C21.7032 11.2847 20.9857 10.9437 20.1212 10.6618C18.3894 10.0973 16.0127 9.75215 13.3986 9.75215C10.7844 9.75215 8.40767 10.0973 6.67595 10.6618C5.81145 10.9437 5.0939 11.2847 4.58728 11.6752C4.0841 12.063 3.75215 12.5302 3.75215 13.0642C3.75215 13.5981 4.0841 14.0653 4.58728 14.4532C5.0939 14.8437 5.81145 15.1847 6.67595 15.4665C8.40767 16.0311 10.7844 16.3762 13.3986 16.3762Z" stroke="#FAB104" stroke-width="0.49569"/>
<path d="M10.211 12.5978V15H9.82395L8.69204 13.3637H8.6721V15H8.23694V12.5978H8.62636L9.75709 14.2352H9.7782V12.5978H10.211ZM12.2945 13.3649C12.2749 13.3016 12.248 13.2449 12.2136 13.1948C12.1799 13.144 12.1393 13.1006 12.0916 13.0646C12.0446 13.0287 11.9907 13.0017 11.9297 12.9837C11.8687 12.9649 11.8022 12.9555 11.7303 12.9555C11.6013 12.9555 11.4863 12.988 11.3854 13.0529C11.2846 13.1178 11.2052 13.2132 11.1473 13.3391C11.0903 13.4642 11.0617 13.6167 11.0617 13.7965C11.0617 13.978 11.0903 14.1316 11.1473 14.2575C11.2044 14.3834 11.2838 14.4792 11.3854 14.5449C11.4871 14.6098 11.6052 14.6422 11.7397 14.6422C11.8617 14.6422 11.9672 14.6188 12.0564 14.5719C12.1463 14.525 12.2155 14.4585 12.264 14.3725C12.3125 14.2857 12.3367 14.184 12.3367 14.0675L12.4352 14.0827H11.7831V13.7426H12.7578V14.0311C12.7578 14.2368 12.714 14.4147 12.6264 14.5648C12.5389 14.715 12.4184 14.8307 12.2652 14.912C12.1119 14.9926 11.936 15.0328 11.7373 15.0328C11.516 15.0328 11.3217 14.9832 11.1544 14.8839C10.9878 14.7838 10.8576 14.6419 10.7638 14.4581C10.6707 14.2735 10.6242 14.0546 10.6242 13.8012C10.6242 13.6073 10.6516 13.4341 10.7063 13.2816C10.7618 13.1291 10.8392 12.9997 10.9385 12.8934C11.0379 12.7862 11.1544 12.7049 11.2881 12.6494C11.4218 12.5931 11.5673 12.5649 11.7244 12.5649C11.8574 12.5649 11.9813 12.5845 12.0963 12.6236C12.2112 12.6619 12.3133 12.7166 12.4024 12.7878C12.4923 12.859 12.5662 12.9434 12.6241 13.0412C12.682 13.1389 12.7199 13.2468 12.7379 13.3649H12.2945ZM13.1786 15V12.5978H14.7175V12.9626H13.6138V13.6147H14.612V13.9795H13.6138V15H13.1786ZM15.1225 15H14.658L15.5037 12.5978H16.0409L16.8878 15H16.4233L15.7817 13.0904H15.7629L15.1225 15ZM15.1377 14.0581H16.4045V14.4077H15.1377V14.0581Z" fill="#040788"/>
</svg>
