<svg width="21" height="16" viewBox="0 0 21 16" fill="none" xmlns="http://www.w3.org/2000/svg">
<path fill-rule="evenodd" clip-rule="evenodd" d="M17.7444 4.66045e-09C18.5096 -4.26217e-05 19.2459 0.292325 19.8026 0.817284C20.3594 1.34224 20.6945 2.06011 20.7394 2.824L20.7444 3V13C20.7444 13.7652 20.4521 14.5015 19.9271 15.0583C19.4021 15.615 18.6843 15.9501 17.9204 15.995L17.7444 16H3.74438C2.97917 16 2.24287 15.7077 1.68612 15.1827C1.12938 14.6578 0.794277 13.9399 0.749385 13.176L0.744385 13V3C0.744342 2.23479 1.03671 1.49849 1.56167 0.941739C2.08663 0.384993 2.80449 0.0498925 3.56838 0.00500012L3.74438 4.66045e-09H17.7444ZM18.7444 6H2.74438V13C2.74442 13.2449 2.83434 13.4813 2.9971 13.6644C3.15986 13.8474 3.38413 13.9643 3.62738 13.993L3.74438 14H17.7444C17.9893 14 18.2257 13.91 18.4088 13.7473C18.5918 13.5845 18.7087 13.3603 18.7374 13.117L18.7444 13V6ZM13.4514 7.464L15.2794 9.293C15.4669 9.48053 15.5722 9.73484 15.5722 10C15.5722 10.2652 15.4669 10.5195 15.2794 10.707L13.4514 12.535C13.3591 12.6305 13.2488 12.7067 13.1268 12.7591C13.0048 12.8115 12.8736 12.8391 12.7408 12.8403C12.608 12.8414 12.4763 12.8161 12.3534 12.7658C12.2305 12.7155 12.1189 12.6413 12.025 12.5474C11.9311 12.4535 11.8568 12.3419 11.8066 12.219C11.7563 12.0961 11.731 11.9644 11.7321 11.8316C11.7333 11.6988 11.7609 11.5676 11.8133 11.4456C11.8657 11.3236 11.9419 11.2132 12.0374 11.121L12.1574 11H7.74438C7.47917 11 7.22481 10.8946 7.03728 10.7071C6.84974 10.5196 6.74438 10.2652 6.74438 10C6.74438 9.73478 6.84974 9.48043 7.03728 9.29289C7.22481 9.10536 7.47917 9 7.74438 9H12.1584L12.0374 8.879C11.8497 8.69149 11.7443 8.43712 11.7442 8.17185C11.7441 7.90658 11.8494 7.65214 12.0369 7.4645C12.2244 7.27686 12.4788 7.17139 12.744 7.1713C13.0093 7.1712 13.2637 7.27649 13.4514 7.464ZM17.7444 2H3.74438C3.47917 2 3.22481 2.10536 3.03728 2.29289C2.84974 2.48043 2.74438 2.73478 2.74438 3V4H18.7444V3C18.7444 2.73478 18.639 2.48043 18.4515 2.29289C18.264 2.10536 18.0096 2 17.7444 2Z" fill="#7C7C7C"/>
</svg>
