<svg width="30" height="30" viewBox="0 0 30 30" fill="none" xmlns="http://www.w3.org/2000/svg">
<path d="M21.3773 5.56239L24.7292 8.91431M23.5322 2.60948L14.4645 11.6772C13.9959 12.1451 13.6764 12.7412 13.5461 13.3904L12.7086 17.5831L16.9012 16.7439C17.5504 16.6141 18.1457 16.2958 18.6144 15.8271L27.6821 6.75939C27.9546 6.48691 28.1708 6.16342 28.3182 5.80739C28.4657 5.45137 28.5416 5.06979 28.5416 4.68443C28.5416 4.29908 28.4657 3.9175 28.3182 3.56147C28.1708 3.20545 27.9546 2.88196 27.6821 2.60948C27.4097 2.33699 27.0862 2.12084 26.7301 1.97337C26.3741 1.8259 25.9925 1.75 25.6072 1.75C25.2218 1.75 24.8402 1.8259 24.4842 1.97337C24.1282 2.12084 23.8047 2.33699 23.5322 2.60948Z" stroke="#72BF01" stroke-width="2" stroke-linecap="round" stroke-linejoin="round"/>
<path d="M25.3752 20.7493V25.4993C25.3752 26.3392 25.0416 27.1447 24.4477 27.7385C23.8539 28.3324 23.0484 28.666 22.2085 28.666H4.79188C3.95203 28.666 3.14657 28.3324 2.55271 27.7385C1.95884 27.1447 1.62521 26.3392 1.62521 25.4993V8.08268C1.62521 7.24283 1.95884 6.43738 2.55271 5.84351C3.14657 5.24965 3.95203 4.91602 4.79188 4.91602H9.54188" stroke="#72BF01" stroke-width="2" stroke-linecap="round" stroke-linejoin="round"/>
</svg>
