<svg width="31" height="31" viewBox="0 0 31 31" fill="none" xmlns="http://www.w3.org/2000/svg">
<path fill-rule="evenodd" clip-rule="evenodd" d="M28.1831 1.46393C27.2454 0.526577 25.9739 0 24.6481 0C23.3222 0 22.0507 0.526577 21.1131 1.46393L19.9347 2.64393L28.1847 10.8939L29.3614 9.7156C29.8258 9.2513 30.1941 8.70006 30.4455 8.09338C30.6968 7.4867 30.8262 6.83645 30.8262 6.17977C30.8262 5.52309 30.6968 4.87284 30.4455 4.26615C30.1941 3.65947 29.8258 3.10824 29.3614 2.64393L28.1831 1.46393ZM25.8264 13.2506L17.5764 5.0006L2.42639 20.1523C2.09486 20.4839 1.86327 20.902 1.75806 21.3589L0.0430571 28.7839C-0.0208446 29.0596 -0.0135147 29.347 0.0643558 29.619C0.142226 29.891 0.288074 30.1388 0.488156 30.3388C0.688237 30.5389 0.935965 30.6848 1.208 30.7626C1.48003 30.8405 1.76741 30.8478 2.04306 30.7839L9.46972 29.0706C9.92607 28.9651 10.3436 28.7335 10.6747 28.4023L25.8264 13.2506Z" fill="#00312D"/>
</svg>
