<svg width="18" height="16" viewBox="0 0 18 16" fill="none" xmlns="http://www.w3.org/2000/svg">
<path fill-rule="evenodd" clip-rule="evenodd" d="M17.0625 5.9885C17.0625 3.494 15.951 1.6325 14.22 0.955254C12.6187 0.327504 10.6965 0.797004 9 2.38475C7.3035 0.797004 5.38125 0.327504 3.78 0.955254C2.049 1.6325 0.9375 3.494 0.9375 5.98775C0.9375 7.577 1.785 9.14 2.84025 10.4855C3.90675 11.8453 5.24775 13.0625 6.36675 13.9708L6.46725 14.0533C7.36725 14.7845 8.01825 15.3133 9 15.3133C9.9825 15.3133 10.632 14.7845 11.5328 14.0533L11.6332 13.9708C12.7522 13.0633 14.0932 11.8453 15.1597 10.4855C16.215 9.14 17.0625 7.577 17.0625 5.9885ZM9.411 3.56525C10.995 1.871 12.6367 1.54325 13.8105 2.00225C14.9865 2.46275 15.9375 3.80975 15.9375 5.9885C15.9375 7.19675 15.2775 8.5115 14.274 9.791C13.281 11.0585 12.012 12.215 10.9245 13.0978C9.87975 13.9453 9.54225 14.1875 9 14.1875C8.45775 14.1875 8.12025 13.9453 7.0755 13.097C5.988 12.215 4.719 11.0578 3.726 9.79175C2.72175 8.5115 2.0625 7.19675 2.0625 5.9885C2.0625 3.80975 3.0135 2.4635 4.1895 2.00225C5.36325 1.54325 7.005 1.871 8.589 3.56525C8.64162 3.62157 8.70526 3.66648 8.77596 3.69718C8.84666 3.72787 8.92292 3.74372 9 3.74372C9.07708 3.74372 9.15334 3.72787 9.22404 3.69718C9.29474 3.66648 9.35838 3.62157 9.411 3.56525Z" fill="#00312D"/>
</svg>
