<svg width="24" height="24" viewBox="0 0 24 24" fill="none" xmlns="http://www.w3.org/2000/svg">
<path d="M8.66667 24C7.71467 24 6.92089 23.6827 6.28533 23.048C5.65067 22.4116 5.33333 21.6178 5.33333 20.6667C5.33333 20.2613 5.31422 19.9222 5.276 19.6493C5.23689 19.3756 5.14133 19.1622 4.98933 19.0093C4.83733 18.8564 4.62444 18.7529 4.35067 18.6987C4.07778 18.6436 3.73867 18.616 3.33333 18.616C2.38133 18.616 1.58756 18.3067 0.952 17.688C0.317333 17.0702 0 16.2853 0 15.3333C0 14.3813 0.317333 13.5876 0.952 12.952C1.58844 12.3173 2.38222 12 3.33333 12C3.69067 12 4.02933 12.0453 4.34933 12.136C4.66933 12.2267 4.94089 12.3627 5.164 12.544C5.404 12.7316 5.68178 12.8253 5.99733 12.8253C6.31289 12.8253 6.58222 12.7142 6.80533 12.492L12.3893 6.908C12.6116 6.68578 12.74 6.40356 12.7747 6.06133C12.8084 5.72 12.7316 5.42089 12.544 5.164C12.3796 4.92311 12.248 4.64711 12.1493 4.336C12.0498 4.02489 12 3.69067 12 3.33333C12 2.38133 12.3173 1.58756 12.952 0.952C13.5884 0.317333 14.3822 0 15.3333 0C16.2853 0 17.0791 0.317333 17.7147 0.952C18.3493 1.58844 18.6667 2.38222 18.6667 3.33333C18.6667 3.73867 18.6858 4.07778 18.724 4.35067C18.7631 4.62444 18.8587 4.83778 19.0107 4.99067C19.1627 5.14356 19.3756 5.23867 19.6493 5.276C19.9222 5.31422 20.2613 5.33333 20.6667 5.33333C21.6187 5.33333 22.4124 5.65067 23.048 6.28533C23.6827 6.92178 24 7.71556 24 8.66667C24 9.61867 23.6827 10.4124 23.048 11.048C22.4116 11.6827 21.6178 12 20.6667 12C20.3093 12 19.9751 11.9502 19.664 11.8507C19.3529 11.752 19.0769 11.6204 18.836 11.456C18.5791 11.2853 18.2884 11.2129 17.964 11.2387C17.6396 11.2644 17.3662 11.3884 17.144 11.6107L11.6107 17.144C11.3884 17.3662 11.26 17.6267 11.2253 17.9253C11.1916 18.2249 11.2516 18.5111 11.4053 18.784C11.552 19.0258 11.688 19.3102 11.8133 19.6373C11.9378 19.9662 12 20.3093 12 20.6667C12 21.6187 11.6827 22.4124 11.048 23.048C10.4116 23.6827 9.61778 24 8.66667 24ZM8.66667 22.6667C9.24444 22.6667 9.72222 22.4778 10.1 22.1C10.4778 21.7222 10.6667 21.2444 10.6667 20.6667C10.6667 20.4667 10.6391 20.2724 10.584 20.084C10.5289 19.8956 10.4453 19.712 10.3333 19.5333C9.98933 19.0178 9.84267 18.4498 9.89333 17.8293C9.94222 17.2098 10.2 16.6667 10.6667 16.2L16.2 10.6667C16.6667 10.2 17.2098 9.94622 17.8293 9.90533C18.4489 9.86444 19.0169 10.0071 19.5333 10.3333C19.7111 10.4444 19.8947 10.528 20.084 10.584C20.2733 10.64 20.4676 10.6676 20.6667 10.6667C21.2444 10.6667 21.7222 10.4778 22.1 10.1C22.4778 9.72222 22.6667 9.24444 22.6667 8.66667C22.6667 8.08889 22.4778 7.61111 22.1 7.23333C21.7222 6.85556 21.2444 6.66667 20.6667 6.66667C20.0258 6.66667 19.5027 6.61511 19.0973 6.512C18.692 6.408 18.3484 6.21511 18.0667 5.93333C17.7849 5.65156 17.592 5.308 17.488 4.90267C17.3849 4.49644 17.3333 3.97333 17.3333 3.33333C17.3333 2.75556 17.1444 2.27778 16.7667 1.9C16.3889 1.52222 15.9111 1.33333 15.3333 1.33333C14.7556 1.33333 14.2778 1.52222 13.9 1.9C13.5222 2.27778 13.3333 2.75556 13.3333 3.33333C13.3333 3.544 13.36 3.74089 13.4133 3.924C13.4667 4.108 13.5511 4.28889 13.6667 4.46667C14.0107 4.98222 14.1573 5.55022 14.1067 6.17067C14.0578 6.79022 13.8 7.33333 13.3333 7.8L7.8 13.3333C7.33333 13.8 6.79022 14.0538 6.17067 14.0947C5.55111 14.1356 4.98311 13.9929 4.46667 13.6667C4.28889 13.5556 4.10578 13.4724 3.91733 13.4173C3.72889 13.3622 3.53422 13.3342 3.33333 13.3333C2.75556 13.3333 2.27778 13.5222 1.9 13.9C1.52222 14.2778 1.33333 14.7556 1.33333 15.3333C1.33333 15.9111 1.52222 16.3804 1.9 16.7413C2.27778 17.1022 2.75556 17.2827 3.33333 17.2827C3.97422 17.2827 4.49733 17.3427 4.90267 17.4627C5.308 17.5836 5.65156 17.7849 5.93333 18.0667C6.21511 18.3484 6.408 18.7004 6.512 19.1227C6.616 19.5449 6.66756 20.0764 6.66667 20.7173C6.66667 21.2951 6.85556 21.7644 7.23333 22.1253C7.61111 22.4862 8.08889 22.6667 8.66667 22.6667Z" fill="#00312D"/>
</svg>
