<svg width="18" height="22" viewBox="0 0 18 22" fill="none" xmlns="http://www.w3.org/2000/svg">
<path fill-rule="evenodd" clip-rule="evenodd" d="M8.74444 0.25C7.48466 0.25 6.27648 0.750445 5.38568 1.64124C4.49489 2.53204 3.99444 3.74022 3.99444 5C3.99444 6.25978 4.49489 7.46796 5.38568 8.35876C6.27648 9.24955 7.48466 9.75 8.74444 9.75C10.0042 9.75 11.2124 9.24955 12.1032 8.35876C12.994 7.46796 13.4944 6.25978 13.4944 5C13.4944 3.74022 12.994 2.53204 12.1032 1.64124C11.2124 0.750445 10.0042 0.25 8.74444 0.25ZM5.49444 5C5.49444 4.13805 5.83685 3.3114 6.44634 2.7019C7.05584 2.09241 7.88249 1.75 8.74444 1.75C9.60639 1.75 10.433 2.09241 11.0425 2.7019C11.652 3.3114 11.9944 4.13805 11.9944 5C11.9944 5.86195 11.652 6.6886 11.0425 7.2981C10.433 7.90759 9.60639 8.25 8.74444 8.25C7.88249 8.25 7.05584 7.90759 6.44634 7.2981C5.83685 6.6886 5.49444 5.86195 5.49444 5ZM8.74444 11.25C6.43144 11.25 4.29944 11.776 2.72044 12.664C1.16444 13.54 -0.00555933 14.866 -0.00555933 16.5V16.602C-0.00655933 17.764 -0.00755942 19.222 1.27144 20.264C1.90044 20.776 2.78144 21.141 3.97144 21.381C5.16344 21.623 6.71844 21.75 8.74444 21.75C10.7704 21.75 12.3244 21.623 13.5184 21.381C14.7084 21.141 15.5884 20.776 16.2184 20.264C17.4974 19.222 17.4954 17.764 17.4944 16.602V16.5C17.4944 14.866 16.3244 13.54 14.7694 12.664C13.1894 11.776 11.0584 11.25 8.74444 11.25ZM1.49444 16.5C1.49444 15.649 2.11644 14.725 3.45544 13.972C4.77144 13.232 6.63944 12.75 8.74544 12.75C10.8494 12.75 12.7174 13.232 14.0334 13.972C15.3734 14.725 15.9944 15.649 15.9944 16.5C15.9944 17.808 15.9544 18.544 15.2704 19.1C14.9004 19.402 14.2804 19.697 13.2204 19.911C12.1634 20.125 10.7184 20.25 8.74444 20.25C6.77044 20.25 5.32444 20.125 4.26844 19.911C3.20844 19.697 2.58844 19.402 2.21844 19.101C1.53444 18.544 1.49444 17.808 1.49444 16.5Z" fill="#7C7C7C"/>
</svg>
