<svg width="21" height="20" viewBox="0 0 21 20" fill="none" xmlns="http://www.w3.org/2000/svg">
<path fill-rule="evenodd" clip-rule="evenodd" d="M9.28149 0.163953C9.68524 0.127217 10.0923 0.172698 10.4779 0.297651C10.8636 0.422603 11.22 0.624434 11.5255 0.890953L11.6755 1.03095L19.4975 8.85395C20.0358 9.39238 20.3493 10.1153 20.3743 10.8763C20.3994 11.6372 20.1342 12.3793 19.6325 12.952L19.4975 13.096L13.8405 18.753C13.3021 19.2913 12.5791 19.6047 11.8182 19.6298C11.0572 19.6549 10.3152 19.3897 9.74249 18.888L9.59849 18.753L1.77449 10.93C1.48797 10.6434 1.26245 10.3019 1.11155 9.92582C0.960652 9.54977 0.887494 9.14705 0.896492 8.74195L0.907492 8.53695L1.37949 3.35195C1.44009 2.68374 1.72294 2.05512 2.18285 1.56658C2.64275 1.07803 3.25315 0.757762 3.91649 0.656953L4.09549 0.635953L9.28149 0.163953ZM9.58949 2.15295L9.46249 2.15595L4.27749 2.62795C4.06485 2.64715 3.86394 2.73391 3.70415 2.87552C3.54437 3.01713 3.4341 3.20616 3.38949 3.41495L3.37249 3.53295L2.90049 8.71795C2.87777 8.96991 2.95138 9.22111 3.10649 9.42095L3.18949 9.51595L11.0125 17.339C11.1847 17.5111 11.4138 17.6146 11.6568 17.6298C11.8998 17.6451 12.1401 17.5712 12.3325 17.422L12.4265 17.339L18.0835 11.682C18.2557 11.5098 18.3591 11.2807 18.3744 11.0376C18.3897 10.7946 18.3157 10.5544 18.1665 10.362L18.0835 10.268L10.2605 2.44495C10.0818 2.26634 9.84202 2.16201 9.58949 2.15295ZM6.06149 5.31795C6.34009 5.03935 6.67084 4.81836 7.03484 4.66758C7.39885 4.5168 7.78899 4.4392 8.18299 4.4392C8.57699 4.4392 8.96713 4.5168 9.33114 4.66758C9.69515 4.81836 10.0259 5.03935 10.3045 5.31795C10.5831 5.59655 10.8041 5.9273 10.9549 6.29131C11.1056 6.65531 11.1832 7.04545 11.1832 7.43945C11.1832 7.83345 11.1056 8.22359 10.9549 8.5876C10.8041 8.95161 10.5831 9.28235 10.3045 9.56095C9.74184 10.1236 8.97871 10.4397 8.18299 10.4397C7.38728 10.4397 6.62415 10.1236 6.06149 9.56095C5.49884 8.9983 5.18274 8.23517 5.18274 7.43945C5.18274 6.64374 5.49884 5.88061 6.06149 5.31795ZM8.89049 6.73195C8.79765 6.63904 8.68741 6.56533 8.56608 6.51502C8.44475 6.46471 8.31469 6.4388 8.18335 6.43875C8.052 6.4387 7.92193 6.46453 7.80056 6.51475C7.67919 6.56497 7.5689 6.63861 7.47599 6.73145C7.38308 6.8243 7.30937 6.93453 7.25906 7.05586C7.20875 7.1772 7.18284 7.30725 7.18279 7.4386C7.18274 7.56995 7.20857 7.70002 7.25879 7.82139C7.30901 7.94275 7.38265 8.05304 7.47549 8.14595C7.663 8.33359 7.91737 8.43906 8.18264 8.43916C8.44791 8.43925 8.70235 8.33396 8.88999 8.14645C9.07763 7.95894 9.1831 7.70458 9.18319 7.43931C9.18329 7.17404 9.078 6.91959 8.89049 6.73195Z" fill="#7C7C7C"/>
</svg>
