<svg width="20" height="18" viewBox="0 0 20 18" fill="none" xmlns="http://www.w3.org/2000/svg">
<path fill-rule="evenodd" clip-rule="evenodd" d="M16.4941 0.801003C18.5891 2.022 20.0631 4.501 19.9981 7.393C19.9171 11.003 17.1081 14.187 12.3191 17.031C11.6091 17.453 10.8611 18 10.0001 18C9.15507 18 8.37507 17.443 7.68007 17.03C2.89307 14.187 0.0830677 11.002 0.00206769 7.393C-0.0629323 4.501 1.41107 2.023 3.50607 0.801003C5.46607 -0.339997 7.92807 -0.346997 10.0001 1.338C12.0721 -0.346997 14.5341 -0.340997 16.4941 0.801003ZM15.4871 2.53C14.0931 1.718 12.3511 1.747 10.8431 3.273C10.7326 3.38421 10.6013 3.47247 10.4566 3.53269C10.3119 3.59292 10.1568 3.62393 10.0001 3.62393C9.84335 3.62393 9.68819 3.59292 9.54351 3.53269C9.39883 3.47247 9.26749 3.38421 9.15707 3.273C7.64907 1.747 5.90707 1.718 4.51307 2.53C3.06907 3.372 1.95307 5.158 2.00207 7.35C2.05807 9.861 4.04207 12.544 8.70207 15.312C9.11007 15.555 9.53607 15.866 10.0001 15.995C10.4641 15.866 10.8901 15.555 11.2981 15.312C15.9581 12.544 17.9421 9.862 17.9981 7.349C18.0481 5.159 16.9311 3.372 15.4871 2.53Z" fill="#09244B"/>
</svg>
