<svg width="20" height="18" viewBox="0 0 20 18" fill="none" xmlns="http://www.w3.org/2000/svg">
<path fill-rule="evenodd" clip-rule="evenodd" d="M15.5 0C15.8105 0 16.1167 0.0722902 16.3944 0.211146C16.6721 0.350001 16.9137 0.551608 17.1 0.8L19.788 4.384C19.9229 4.56077 19.9948 4.77764 19.992 5H20V6C20 7.014 19.622 7.94 19 8.646V16C19 16.5304 18.7893 17.0391 18.4142 17.4142C18.0391 17.7893 17.5304 18 17 18H3C2.46957 18 1.96086 17.7893 1.58579 17.4142C1.21072 17.0391 1 16.5304 1 16V8.646C0.35432 7.91596 -0.00144327 6.97461 4.40082e-06 6V5H0.0080043C0.00525724 4.77764 0.0770784 4.56077 0.212004 4.384L2.9 0.8C3.0863 0.551608 3.32787 0.350001 3.60558 0.211146C3.88329 0.0722902 4.18951 0 4.5 0H15.5ZM13 8.646C12.625 9.07208 12.1635 9.41326 11.6461 9.64675C11.1288 9.88024 10.5676 10.0007 10 10C9.43242 10.0007 8.87122 9.88024 8.35388 9.64675C7.83655 9.41326 7.37498 9.07208 7 8.646C6.54012 9.16898 5.95136 9.56248 5.29225 9.78739C4.63315 10.0123 3.92665 10.0608 3.243 9.928L3 9.874V16H17V9.874L16.757 9.928C16.0733 10.0607 15.3667 10.012 14.7076 9.78694C14.0485 9.56185 13.4598 9.16916 13 8.646ZM18 6H14C13.9977 6.51898 14.1972 7.01855 14.5564 7.39315C14.9156 7.76776 15.4063 7.98807 15.9249 8.00754C16.4436 8.02701 16.9494 7.84412 17.3357 7.49751C17.722 7.15089 17.9584 6.6677 17.995 6.15L18 6ZM12 6H8C7.99768 6.51898 8.19719 7.01855 8.55638 7.39315C8.91558 7.76776 9.40632 7.98807 9.92494 8.00754C10.4436 8.02701 10.9494 7.84412 11.3357 7.49751C11.722 7.15089 11.9584 6.6677 11.995 6.15L12 6ZM6 6H2C1.99768 6.51898 2.19719 7.01855 2.55638 7.39315C2.91558 7.76776 3.40632 7.98807 3.92494 8.00754C4.44357 8.02701 4.94945 7.84412 5.33572 7.49751C5.72199 7.15089 5.9584 6.6677 5.995 6.15L6 6ZM15.5 2H4.5L3 4H17L15.5 2Z" fill="#F5F5F5"/>
</svg>
