<svg width="39" height="42" viewBox="0 0 39 42" fill="none" xmlns="http://www.w3.org/2000/svg">
<path d="M0.00171379 18.857C0.00171379 18.6297 0.0920005 18.4117 0.252712 18.251C0.413423 18.0903 0.631393 18 0.858673 18H1.60937C2.85539 18 3.57181 18.8107 3.98657 19.6197C4.26937 20.1732 4.47333 20.8485 4.643 21.4347H22.2878C22.5526 21.4348 22.8138 21.4962 23.0509 21.6142C23.288 21.7322 23.4945 21.9035 23.6543 22.1148C23.814 22.326 23.9227 22.5714 23.9716 22.8316C24.0206 23.0919 24.0086 23.36 23.9366 23.6148L21.3726 32.6557C21.1686 33.373 20.7363 34.0042 20.1412 34.4536C19.5461 34.903 18.8207 35.1461 18.075 35.146H9.36999C8.61805 35.1463 7.88689 34.8993 7.28915 34.4431C6.69141 33.9869 6.26027 33.3468 6.06213 32.6214L4.96179 28.5852C4.95548 28.5671 4.94977 28.5488 4.94465 28.5303L3.1776 22.5367L3.00621 21.9592C2.83482 21.3661 2.684 20.8417 2.45776 20.4012C2.18525 19.8699 1.93501 19.7156 1.60766 19.7156H0.856959C0.62968 19.7156 0.411708 19.6253 0.250997 19.4646C0.0902863 19.3039 0 19.086 0 18.8587M6.59687 28.0676L7.71606 32.1741C7.81529 32.5366 8.03093 32.8565 8.32979 33.0844C8.62864 33.3124 8.99413 33.4357 9.36999 33.4355H18.0767C18.4494 33.4352 18.8118 33.3133 19.109 33.0885C19.4062 32.8636 19.622 32.5481 19.7238 32.1895L22.2878 23.1486H5.14861L6.59687 28.0676ZM12.0043 39.4291C12.0043 40.111 11.7334 40.7649 11.2513 41.247C10.7692 41.7291 10.1152 42 9.43341 42C8.75157 42 8.09765 41.7291 7.61552 41.247C7.13339 40.7649 6.86253 40.111 6.86253 39.4291C6.86253 38.7473 7.13339 38.0934 7.61552 37.6112C8.09765 37.1291 8.75157 36.8582 9.43341 36.8582C10.1152 36.8582 10.7692 37.1291 11.2513 37.6112C11.7334 38.0934 12.0043 38.7473 12.0043 39.4291ZM10.2904 39.4291C10.2904 39.2018 10.2001 38.9839 10.0394 38.8232C9.87866 38.6624 9.66069 38.5722 9.43341 38.5722C9.20613 38.5722 8.98816 38.6624 8.82744 38.8232C8.66673 38.9839 8.57645 39.2018 8.57645 39.4291C8.57645 39.6564 8.66673 39.8744 8.82744 40.0351C8.98816 40.1958 9.20613 40.2861 9.43341 40.2861C9.66069 40.2861 9.87866 40.1958 10.0394 40.0351C10.2001 39.8744 10.2904 39.6564 10.2904 39.4291ZM20.5739 39.4291C20.5739 40.111 20.303 40.7649 19.8209 41.247C19.3388 41.7291 18.6848 42 18.003 42C17.3212 42 16.6672 41.7291 16.1851 41.247C15.703 40.7649 15.4321 40.111 15.4321 39.4291C15.4321 38.7473 15.703 38.0934 16.1851 37.6112C16.6672 37.1291 17.3212 36.8582 18.003 36.8582C18.6848 36.8582 19.3388 37.1291 19.8209 37.6112C20.303 38.0934 20.5739 38.7473 20.5739 39.4291ZM18.86 39.4291C18.86 39.2018 18.7697 38.9839 18.609 38.8232C18.4482 38.6624 18.2303 38.5722 18.003 38.5722C17.7757 38.5722 17.5577 38.6624 17.397 38.8232C17.2363 38.9839 17.146 39.2018 17.146 39.4291C17.146 39.6564 17.2363 39.8744 17.397 40.0351C17.5577 40.1958 17.7757 40.2861 18.003 40.2861C18.2303 40.2861 18.4482 40.1958 18.609 40.0351C18.7697 39.8744 18.86 39.6564 18.86 39.4291Z" fill="#00312D"/>
<circle cx="24" cy="15" r="15" fill="#BFF202"/>
<path d="M24.767 9.36364V21H22.6591V11.4148H22.5909L19.8693 13.1534V11.2216L22.7614 9.36364H24.767Z" fill="#00312D"/>
</svg>
