<svg width="25" height="24" viewBox="0 0 25 24" fill="none" xmlns="http://www.w3.org/2000/svg">
<path d="M0.501226 0.856959C0.501226 0.62968 0.591512 0.411708 0.752223 0.250997C0.912934 0.0902863 1.13091 0 1.35818 0H2.10888C3.3549 0 4.07132 0.810683 4.48609 1.61965C4.76888 2.17325 4.97284 2.84853 5.14252 3.43469H22.7873C23.0521 3.43477 23.3133 3.49622 23.5504 3.61421C23.7875 3.73221 23.994 3.90354 24.1538 4.11477C24.3135 4.32599 24.4222 4.57136 24.4711 4.83162C24.5201 5.09188 24.5081 5.35995 24.4361 5.6148L21.8721 14.6557C21.6681 15.373 21.2358 16.0042 20.6407 16.4536C20.0456 16.903 19.3202 17.1461 18.5745 17.146H9.8695C9.11757 17.1463 8.3864 16.8993 7.78867 16.4431C7.19093 15.9869 6.75978 15.3468 6.56164 14.6214L5.46131 10.5852C5.455 10.5671 5.44928 10.5488 5.44417 10.5303L3.67712 4.53674L3.50572 3.95915C3.33433 3.36614 3.18351 2.84168 2.95727 2.4012C2.68476 1.86988 2.43453 1.71563 2.10717 1.71563H1.35647C1.12919 1.71563 0.91122 1.62535 0.750509 1.46463C0.589798 1.30392 0.499512 1.08595 0.499512 0.858673M7.09638 10.0676L8.21557 14.1741C8.3148 14.5366 8.53044 14.8565 8.8293 15.0844C9.12815 15.3124 9.49365 15.4357 9.8695 15.4355H18.5762C18.9489 15.4352 19.3113 15.3133 19.6085 15.0885C19.9057 14.8636 20.1215 14.5481 20.2233 14.1895L22.7873 5.14861H5.64812L7.09638 10.0676ZM12.5038 21.4291C12.5038 22.111 12.2329 22.7649 11.7508 23.247C11.2687 23.7291 10.6148 24 9.93292 24C9.25108 24 8.59717 23.7291 8.11503 23.247C7.6329 22.7649 7.36204 22.111 7.36204 21.4291C7.36204 20.7473 7.6329 20.0934 8.11503 19.6112C8.59717 19.1291 9.25108 18.8582 9.93292 18.8582C10.6148 18.8582 11.2687 19.1291 11.7508 19.6112C12.2329 20.0934 12.5038 20.7473 12.5038 21.4291ZM10.7899 21.4291C10.7899 21.2018 10.6996 20.9839 10.5389 20.8232C10.3782 20.6624 10.1602 20.5722 9.93292 20.5722C9.70564 20.5722 9.48767 20.6624 9.32696 20.8232C9.16625 20.9839 9.07596 21.2018 9.07596 21.4291C9.07596 21.6564 9.16625 21.8744 9.32696 22.0351C9.48767 22.1958 9.70564 22.2861 9.93292 22.2861C10.1602 22.2861 10.3782 22.1958 10.5389 22.0351C10.6996 21.8744 10.7899 21.6564 10.7899 21.4291ZM21.0734 21.4291C21.0734 22.111 20.8025 22.7649 20.3204 23.247C19.8383 23.7291 19.1843 24 18.5025 24C17.8207 24 17.1668 23.7291 16.6846 23.247C16.2025 22.7649 15.9316 22.111 15.9316 21.4291C15.9316 20.7473 16.2025 20.0934 16.6846 19.6112C17.1668 19.1291 17.8207 18.8582 18.5025 18.8582C19.1843 18.8582 19.8383 19.1291 20.3204 19.6112C20.8025 20.0934 21.0734 20.7473 21.0734 21.4291ZM19.3595 21.4291C19.3595 21.2018 19.2692 20.9839 19.1085 20.8232C18.9478 20.6624 18.7298 20.5722 18.5025 20.5722C18.2752 20.5722 18.0573 20.6624 17.8965 20.8232C17.7358 20.9839 17.6456 21.2018 17.6456 21.4291C17.6456 21.6564 17.7358 21.8744 17.8965 22.0351C18.0573 22.1958 18.2752 22.2861 18.5025 22.2861C18.7298 22.2861 18.9478 22.1958 19.1085 22.0351C19.2692 21.8744 19.3595 21.6564 19.3595 21.4291Z" fill="#00312D"/>
</svg>
