<svg width="18" height="19" viewBox="0 0 18 19" fill="none" xmlns="http://www.w3.org/2000/svg">
<path d="M5.308 18.615C4.886 18.615 4.53033 18.4707 4.241 18.182C3.95233 17.8927 3.808 17.537 3.808 17.115C3.808 16.6937 3.95233 16.3383 4.241 16.049C4.53033 15.7597 4.886 15.615 5.308 15.615C5.72933 15.615 6.08467 15.7597 6.374 16.049C6.66333 16.3383 6.808 16.6937 6.808 17.115C6.808 17.537 6.66333 17.8927 6.374 18.182C6.08467 18.4707 5.72933 18.615 5.308 18.615ZM14.692 18.615C14.2707 18.615 13.9153 18.4707 13.626 18.182C13.3367 17.8927 13.192 17.537 13.192 17.115C13.192 16.6937 13.3367 16.3383 13.626 16.049C13.9153 15.7597 14.2707 15.615 14.692 15.615C15.114 15.615 15.4697 15.7597 15.759 16.049C16.0477 16.3383 16.192 16.6937 16.192 17.115C16.192 17.537 16.0477 17.8927 15.759 18.182C15.4697 18.4707 15.114 18.615 14.692 18.615ZM3.881 3L6.55 8.615H13.185C13.3003 8.615 13.4027 8.58633 13.492 8.529C13.582 8.471 13.659 8.391 13.723 8.289L16.338 3.539C16.4153 3.39767 16.422 3.27233 16.358 3.163C16.294 3.05433 16.185 3 16.031 3H3.881ZM3.392 2H16.412C16.846 2 17.1727 2.17733 17.392 2.532C17.612 2.886 17.6237 3.251 17.427 3.627L14.569 8.835C14.4243 9.07833 14.2363 9.26933 14.005 9.408C13.7737 9.546 13.5193 9.615 13.242 9.615H6.1L4.885 11.846C4.78233 11.9993 4.779 12.166 4.875 12.346C4.971 12.526 5.11533 12.616 5.308 12.616H16.192V13.616H5.308C4.72467 13.616 4.28933 13.37 4.002 12.878C3.71533 12.386 3.70833 11.892 3.981 11.396L5.485 8.716L1.808 1H0V0H2.442L3.392 2Z" fill="#00312D"/>
</svg>
