<svg width="14" height="14" viewBox="0 0 14 14" fill="none" xmlns="http://www.w3.org/2000/svg">
<path d="M13.5707 0.82586C13.5647 0.722651 13.521 0.625248 13.4479 0.552144C13.3748 0.47904 13.2774 0.435324 13.1742 0.429297C7.87401 0.11711 3.63487 1.70617 1.83417 4.67969C0.607916 6.70398 0.655728 9.09531 1.96003 11.4438L0.5144 12.8894C0.472951 12.928 0.439706 12.9746 0.416648 13.0263C0.39359 13.0781 0.381192 13.1339 0.380193 13.1906C0.379193 13.2472 0.389613 13.3035 0.410831 13.356C0.432049 13.4086 0.463631 13.4563 0.503691 13.4963C0.543752 13.5364 0.591471 13.568 0.644002 13.5892C0.696532 13.6104 0.752799 13.6208 0.809444 13.6198C0.86609 13.6188 0.921953 13.6064 0.973703 13.5834C1.02545 13.5603 1.07203 13.5271 1.11065 13.4856L2.55628 12.04C3.77057 12.7143 4.99612 13.0532 6.17667 13.0532C7.28643 13.0537 8.37461 12.7465 9.32034 12.1659C12.2939 10.3652 13.8822 6.12602 13.5707 0.82586ZM8.8837 11.443C7.19057 12.4682 5.18245 12.4534 3.17924 11.4156L9.54885 5.04602C9.62337 4.96604 9.66394 4.86027 9.66201 4.75097C9.66009 4.64168 9.61581 4.5374 9.53852 4.4601C9.46122 4.38281 9.35694 4.33853 9.24765 4.3366C9.13835 4.33468 9.03258 4.37525 8.9526 4.44977L2.58299 10.8208C1.54518 8.81758 1.52831 6.81297 2.55557 5.11633C4.15026 2.48453 7.94362 1.05227 12.7509 1.25266C12.9478 6.05641 11.5155 9.85047 8.8837 11.4445V11.443Z" fill="#00312D"/>
</svg>
