<svg width="232" height="232" viewBox="0 0 232 232" fill="none" xmlns="http://www.w3.org/2000/svg">
<path d="M115.833 0.166664C179.808 0.166664 231.667 52.0253 231.667 116C231.667 179.975 179.808 231.833 115.833 231.833C51.8586 231.833 0 179.975 0 116C0 52.0253 51.8586 0.166664 115.833 0.166664ZM156.78 74.0799L99.4429 131.417L74.8863 106.849C73.8108 105.773 72.5339 104.919 71.1285 104.336C69.723 103.754 68.2166 103.453 66.6951 103.453C63.6224 103.452 60.6751 104.671 58.5016 106.843C56.3281 109.015 55.1065 111.962 55.1054 115.034C55.1043 118.107 56.3239 121.054 58.4958 123.228L90.4427 155.175C91.6259 156.359 93.0308 157.298 94.5771 157.938C96.1234 158.579 97.7807 158.909 99.4545 158.909C101.128 158.909 102.786 158.579 104.332 157.938C105.878 157.298 107.283 156.359 108.466 155.175L173.171 90.4703C175.344 88.2968 176.565 85.3489 176.565 82.2751C176.565 79.2013 175.344 76.2534 173.171 74.0799C170.997 71.9064 168.049 70.6854 164.976 70.6854C161.902 70.6854 158.954 71.9064 156.78 74.0799Z" fill="#3A7817"/>
</svg>
