<svg width="33" height="10" viewBox="0 0 33 10" fill="none" xmlns="http://www.w3.org/2000/svg">
<path d="M6.14915 0.272727H7.99432V5.94034C7.99432 6.5767 7.84233 7.13352 7.53835 7.6108C7.23722 8.08807 6.81534 8.46023 6.27273 8.72727C5.73011 8.99148 5.09801 9.12358 4.37642 9.12358C3.65199 9.12358 3.01847 8.99148 2.47585 8.72727C1.93324 8.46023 1.51136 8.08807 1.21023 7.6108C0.909091 7.13352 0.758523 6.5767 0.758523 5.94034V0.272727H2.60369V5.78267C2.60369 6.11506 2.67614 6.41051 2.82102 6.66903C2.96875 6.92756 3.17614 7.13068 3.44318 7.27841C3.71023 7.42614 4.02131 7.5 4.37642 7.5C4.73438 7.5 5.04545 7.42614 5.30966 7.27841C5.5767 7.13068 5.78267 6.92756 5.92756 6.66903C6.07528 6.41051 6.14915 6.11506 6.14915 5.78267V0.272727ZM14.2468 2.78267C14.2127 2.43892 14.0664 2.17187 13.8079 1.98153C13.5494 1.79119 13.1985 1.69602 12.7553 1.69602C12.4542 1.69602 12.1999 1.73864 11.9925 1.82386C11.7852 1.90625 11.6261 2.02131 11.5153 2.16903C11.4073 2.31676 11.3533 2.48438 11.3533 2.67188C11.3477 2.82812 11.3803 2.96449 11.4513 3.08097C11.5252 3.19744 11.6261 3.2983 11.7539 3.38352C11.8817 3.46591 12.0295 3.53835 12.1971 3.60085C12.3647 3.66051 12.5437 3.71165 12.734 3.75426L13.5181 3.94176C13.8988 4.02699 14.2482 4.14062 14.5664 4.28267C14.8846 4.42472 15.1602 4.59943 15.3931 4.80682C15.6261 5.0142 15.8065 5.25852 15.9343 5.53977C16.065 5.82102 16.1317 6.14347 16.1346 6.5071C16.1317 7.04119 15.9954 7.50426 15.7255 7.89631C15.4585 8.28551 15.0721 8.58807 14.5664 8.80398C14.0636 9.01705 13.457 9.12358 12.7468 9.12358C12.0423 9.12358 11.4286 9.01562 10.9059 8.79972C10.386 8.58381 9.97976 8.2642 9.68714 7.84091C9.39737 7.41477 9.24538 6.88778 9.23118 6.25994H11.0167C11.0366 6.55256 11.1204 6.79687 11.2681 6.9929C11.4187 7.18608 11.619 7.33239 11.869 7.43182C12.1218 7.52841 12.4073 7.5767 12.7255 7.5767C13.038 7.5767 13.3093 7.53125 13.5394 7.44034C13.7724 7.34943 13.9528 7.22301 14.0806 7.06108C14.2085 6.89915 14.2724 6.71307 14.2724 6.50284C14.2724 6.30682 14.2141 6.14205 14.0977 6.00852C13.984 5.875 13.8164 5.76136 13.5948 5.66761C13.3761 5.57386 13.1076 5.48864 12.7894 5.41193L11.8391 5.1733C11.1033 4.99432 10.5224 4.71449 10.0962 4.33381C9.6701 3.95312 9.45845 3.44034 9.46129 2.79545C9.45845 2.26705 9.59908 1.8054 9.88317 1.41051C10.1701 1.01562 10.5636 0.707386 11.0636 0.485795C11.5636 0.264204 12.1317 0.153409 12.7681 0.153409C13.4158 0.153409 13.9812 0.264204 14.4641 0.485795C14.9499 0.707386 15.3278 1.01562 15.5977 1.41051C15.8675 1.8054 16.0067 2.26278 16.0153 2.78267H14.2468ZM22.1101 2.78267C22.076 2.43892 21.9297 2.17187 21.6712 1.98153C21.4126 1.79119 21.0618 1.69602 20.6186 1.69602C20.3175 1.69602 20.0632 1.73864 19.8558 1.82386C19.6484 1.90625 19.4893 2.02131 19.3786 2.16903C19.2706 2.31676 19.2166 2.48438 19.2166 2.67188C19.2109 2.82812 19.2436 2.96449 19.3146 3.08097C19.3885 3.19744 19.4893 3.2983 19.6172 3.38352C19.745 3.46591 19.8928 3.53835 20.0604 3.60085C20.228 3.66051 20.407 3.71165 20.5973 3.75426L21.3814 3.94176C21.7621 4.02699 22.1115 4.14062 22.4297 4.28267C22.7479 4.42472 23.0234 4.59943 23.2564 4.80682C23.4893 5.0142 23.6697 5.25852 23.7976 5.53977C23.9283 5.82102 23.995 6.14347 23.9979 6.5071C23.995 7.04119 23.8587 7.50426 23.5888 7.89631C23.3217 8.28551 22.9354 8.58807 22.4297 8.80398C21.9268 9.01705 21.3203 9.12358 20.6101 9.12358C19.9055 9.12358 19.2919 9.01562 18.7692 8.79972C18.2493 8.58381 17.843 8.2642 17.5504 7.84091C17.2607 7.41477 17.1087 6.88778 17.0945 6.25994H18.88C18.8999 6.55256 18.9837 6.79687 19.1314 6.9929C19.282 7.18608 19.4822 7.33239 19.7322 7.43182C19.9851 7.52841 20.2706 7.5767 20.5888 7.5767C20.9013 7.5767 21.1726 7.53125 21.4027 7.44034C21.6357 7.34943 21.8161 7.22301 21.9439 7.06108C22.0717 6.89915 22.1357 6.71307 22.1357 6.50284C22.1357 6.30682 22.0774 6.14205 21.9609 6.00852C21.8473 5.875 21.6797 5.76136 21.4581 5.66761C21.2393 5.57386 20.9709 5.48864 20.6527 5.41193L19.7024 5.1733C18.9666 4.99432 18.3857 4.71449 17.9595 4.33381C17.5334 3.95312 17.3217 3.44034 17.3246 2.79545C17.3217 2.26705 17.4624 1.8054 17.7464 1.41051C18.0334 1.01562 18.4268 0.707386 18.9268 0.485795C19.4268 0.264204 19.995 0.153409 20.6314 0.153409C21.2791 0.153409 21.8445 0.264204 22.3274 0.485795C22.8132 0.707386 23.1911 1.01562 23.4609 1.41051C23.7308 1.8054 23.87 2.26278 23.8786 2.78267H22.1101ZM28.3327 9H25.239V0.272727H28.3583C29.2362 0.272727 29.9918 0.447443 30.6254 0.796875C31.2589 1.14347 31.7461 1.64205 32.087 2.29261C32.4308 2.94318 32.6026 3.72159 32.6026 4.62784C32.6026 5.53693 32.4308 6.31818 32.087 6.97159C31.7461 7.625 31.256 8.12642 30.6168 8.47585C29.9805 8.82528 29.2191 9 28.3327 9ZM27.0842 7.41903H28.256C28.8015 7.41903 29.2603 7.32244 29.6325 7.12926C30.0075 6.93324 30.2887 6.63068 30.4762 6.22159C30.6665 5.80966 30.7617 5.27841 30.7617 4.62784C30.7617 3.98295 30.6665 3.45597 30.4762 3.04688C30.2887 2.63778 30.0089 2.33665 29.6367 2.14347C29.2646 1.95028 28.8058 1.85369 28.2603 1.85369H27.0842V7.41903Z" fill="#00312D"/>
</svg>
