<svg width="31" height="12" viewBox="0 0 31 12" fill="none" xmlns="http://www.w3.org/2000/svg">
<g clip-path="url(#clip0_98_689)">
<path d="M29.5946 0H0.810811C0.363012 0 0 0.363012 0 0.810811V11.1669C0 11.6147 0.363012 11.9777 0.810811 11.9777H29.5946C30.0424 11.9777 30.4054 11.6147 30.4054 11.1669V0.810811C30.4054 0.363012 30.0424 0 29.5946 0Z" fill="#00425F"/>
<path d="M7.03377 10.1351C9.44068 10.1351 11.3919 8.18394 11.3919 5.77702C11.3919 3.37011 9.44068 1.41891 7.03377 1.41891C4.62685 1.41891 2.67566 3.37011 2.67566 5.77702C2.67566 8.18394 4.62685 10.1351 7.03377 10.1351Z" fill="#EE312A"/>
<path d="M7.03375 7.63633C6.05949 5.42787 5.34503 3.36487 5.34503 3.36487H3.85132C3.85132 3.36487 4.76047 6.01286 6.44919 9.32433H7.61831C9.30703 6.01286 10.2162 3.36487 10.2162 3.36487H8.72247C8.72247 3.36487 8.00801 5.42787 7.03375 7.63633Z" fill="white"/>
<path d="M27.8559 7.35974H24.9452C24.9452 7.35974 25.0098 8.33784 26.3035 8.33784C26.9503 8.33784 27.5972 8.14207 27.5972 8.14207L27.7266 9.18515C27.7266 9.18515 27.0797 9.44594 26.1741 9.44594C24.8805 9.44594 23.7162 8.79399 23.7162 6.96859C23.7162 5.53431 24.6217 4.62161 25.9154 4.62161C27.8559 4.62161 27.9853 6.57742 27.8559 7.35974ZM25.8507 5.53431C25.0098 5.53431 24.9452 6.44702 24.9452 6.44702H26.7563C26.7563 6.44702 26.6916 5.53431 25.8507 5.53431Z" fill="white"/>
<path d="M17.806 5.82256L18 4.78497C18 4.78497 16.5017 4.32905 15.2838 5.17407V9.32432H16.5773L16.5772 5.95225C17.0946 5.56316 17.806 5.82256 17.806 5.82256Z" fill="white"/>
<path d="M14.2749 7.35974H11.3641C11.3641 7.35974 11.4288 8.33784 12.7225 8.33784C13.3693 8.33784 14.0161 8.14207 14.0161 8.14207L14.1455 9.18515C14.1455 9.18515 13.4987 9.44594 12.5931 9.44594C11.2994 9.44594 10.1351 8.79399 10.1351 6.96859C10.1351 5.53431 11.0407 4.62161 12.3344 4.62161C14.2749 4.62161 14.4042 6.57742 14.2749 7.35974ZM12.2697 5.53431C11.4288 5.53431 11.3641 6.44702 11.3641 6.44702H13.1753C13.1753 6.44702 13.1106 5.53431 12.2697 5.53431Z" fill="white"/>
<path d="M20.9595 7.7678C20.5562 6.78675 20.2309 5.77543 19.9865 4.74324L18.6892 4.74341C18.6892 4.74341 19.3379 7.24854 20.4407 9.32432H21.4783C22.5811 7.24854 23.2298 4.74387 23.2298 4.74387H21.9325C21.688 5.77584 21.3627 6.78694 20.9595 7.7678Z" fill="white"/>
</g>
<defs>
<clipPath id="clip0_98_689">
<rect width="30.4054" height="12" fill="white"/>
</clipPath>
</defs>
</svg>
