<svg width="24" height="24" viewBox="0 0 24 24" fill="none" xmlns="http://www.w3.org/2000/svg">
<path d="M10.6571 15.1674H9.00895L10.039 8.83702H11.6873L10.6571 15.1674ZM7.62245 8.83702L6.0512 13.1911L5.86527 12.2535L5.86544 12.2538L5.31087 9.407C5.31087 9.407 5.24382 8.83702 4.52906 8.83702H1.93148L1.901 8.94421C1.901 8.94421 2.69535 9.10948 3.62499 9.66777L5.05687 15.1676H6.77409L9.39622 8.83702H7.62245ZM20.5858 15.1674H22.0991L20.7797 8.83685H19.4548C18.843 8.83685 18.694 9.30862 18.694 9.30862L16.2359 15.1674H17.954L18.2976 14.2271H20.3927L20.5858 15.1674ZM18.7722 12.9281L19.6382 10.5591L20.1254 12.9281H18.7722ZM16.3648 10.3593L16.6 8.99992C16.6 8.99992 15.8742 8.72391 15.1177 8.72391C14.2998 8.72391 12.3575 9.08137 12.3575 10.8196C12.3575 12.455 14.6371 12.4753 14.6371 13.3344C14.6371 14.1934 12.5924 14.0395 11.9176 13.4978L11.6726 14.9191C11.6726 14.9191 12.4085 15.2766 13.5329 15.2766C14.6576 15.2766 16.3543 14.6943 16.3543 13.1093C16.3543 11.4634 14.0542 11.3101 14.0542 10.5945C14.0544 9.87876 15.6595 9.97071 16.3648 10.3593Z" fill="#2566AF"/>
<path d="M5.86544 12.2537L5.31087 9.40683C5.31087 9.40683 5.24382 8.83685 4.52906 8.83685H1.93148L1.901 8.94404C1.901 8.94404 3.1495 9.20278 4.34703 10.1722C5.49206 11.0988 5.86544 12.2537 5.86544 12.2537Z" fill="#E6A540"/>
</svg>
