<svg width="164" height="66" viewBox="0 0 164 66" fill="none" xmlns="http://www.w3.org/2000/svg">
<path d="M142.748 23.3627H138.839V44.1503H134.999V23.3627H131.095V20.1743H142.748V23.3627ZM143.602 20.1743H147.708L148.986 30.9477C149.346 34.0348 149.682 36.6918 150.074 40.3356H150.238C150.599 36.6918 150.959 34.0981 151.314 30.9477L152.63 20.1743H156.704L152.762 44.1123H147.575L143.602 20.1743ZM43.9154 22.5782C43.6891 21.7325 43.2463 20.9604 42.6306 20.3381C42.0149 19.7157 41.2476 19.2646 40.4044 19.0293C37.2856 18.2069 24.8105 18.2069 24.8105 18.2069C24.8105 18.2069 12.3291 18.2069 9.21034 19.0293C8.36525 19.2589 7.59566 19.7073 6.97922 20.3292C6.36279 20.9512 5.92131 21.7248 5.69935 22.5719C4.87695 25.6907 4.87695 32.1623 4.87695 32.1623C4.87695 32.1623 4.87695 38.6655 5.69935 41.7527C5.92816 42.6016 6.37577 43.3755 6.99744 43.9972C7.61912 44.6189 8.39308 45.0665 9.24197 45.2953C12.3291 46.1177 24.8042 46.1177 24.8042 46.1177C24.8042 46.1177 37.2856 46.1177 40.4044 45.2953C41.2461 45.0625 42.014 44.6173 42.6343 44.0025C43.2546 43.3878 43.7066 42.6239 43.947 41.7843C44.7694 38.6655 44.7694 32.1939 44.7694 32.1939C44.7694 32.1939 44.7378 25.6907 43.9154 22.5782ZM20.8314 38.1405V26.1841L31.2062 32.1623L20.8314 38.1405ZM62.7672 43.6252C61.9136 43.0331 61.3149 42.1407 61.0907 41.1264C60.7305 39.6658 60.5646 38.1641 60.5973 36.6602V34.1297C60.5622 32.5988 60.7606 31.0714 61.1856 29.6002C61.4731 28.591 62.0984 27.7111 62.9569 27.1077C63.9248 26.551 65.0294 26.277 66.1453 26.317C67.4295 26.317 68.4796 26.5827 69.2641 27.1077C70.0865 27.7277 70.7127 28.5817 70.9721 29.6002C71.3643 31.0805 71.5668 32.5862 71.4972 34.1297V36.6602C71.5288 38.1721 71.3707 39.684 70.9721 41.158C70.7139 42.1657 70.1092 43.0504 69.2641 43.6568C68.4796 44.1819 67.3915 44.4413 66.0504 44.4413C64.6713 44.4096 63.5516 44.1503 62.7608 43.6189L62.7672 43.6252ZM67.1954 40.867C67.4295 40.304 67.5244 39.3488 67.5244 38.0709V32.6557C67.5631 31.7247 67.452 30.7934 67.1954 29.8976C67.1277 29.645 66.979 29.4217 66.7722 29.2618C66.5654 29.1018 66.3118 29.014 66.0504 29.0119C65.7916 29.0131 65.5407 29.101 65.3378 29.2616C65.1348 29.4221 64.9915 29.646 64.9307 29.8976C64.6713 30.7832 64.5701 31.7321 64.6017 32.6557V38.1025C64.6017 39.3867 64.7029 40.3356 64.9307 40.8987C65.0572 41.4237 65.5253 41.7843 66.082 41.7527C66.3397 41.75 66.5892 41.6615 66.7908 41.5011C66.9925 41.3406 67.1349 41.1175 67.1954 40.867ZM123.371 36.6918V37.5774C123.371 38.4315 123.409 39.2539 123.472 40.1079C123.5 40.5448 123.649 40.9654 123.903 41.3225C124.029 41.4555 124.183 41.5594 124.353 41.6272C124.523 41.6949 124.706 41.7248 124.89 41.7147C125.137 41.7317 125.385 41.6754 125.601 41.5527C125.817 41.4301 125.992 41.2466 126.104 41.0252C126.332 40.5697 126.433 39.8106 126.465 38.7288L129.843 38.9565C129.874 39.1659 129.887 39.3776 129.881 39.5892C129.881 41.1897 129.451 42.4043 128.565 43.195C127.679 43.9858 126.433 44.378 124.82 44.378C122.884 44.378 121.537 43.7517 120.752 42.5434C119.968 41.3352 119.569 39.45 119.569 36.8879V33.8387C119.569 31.2071 119.961 29.3029 120.784 28.0883C121.606 26.8737 122.985 26.2854 124.921 26.2854C126.269 26.2854 127.319 26.5447 128.04 27.0445C128.799 27.6012 129.349 28.4172 129.583 29.3409C129.912 30.7516 130.077 32.2256 130.007 33.6742V36.6602L123.371 36.6918ZM123.871 29.3409C123.627 29.7005 123.489 30.1213 123.472 30.5555C123.409 31.408 123.378 32.2626 123.378 33.1175V34.3638H126.269V33.1175C126.269 32.2635 126.231 31.4095 126.136 30.5555C126.108 30.1185 125.959 29.698 125.706 29.3409C125.591 29.2136 125.449 29.1148 125.29 29.0522C125.13 28.9896 124.959 28.965 124.788 28.9803C124.618 28.9624 124.445 28.9858 124.286 29.0486C124.126 29.1113 123.984 29.2116 123.871 29.3409ZM53.1768 36.3628L48.7105 20.1743H52.6201L54.1953 27.5C54.5875 29.3029 54.8848 30.8528 55.0809 32.1307H55.2075C55.3466 31.2071 55.6376 29.7014 56.0931 27.5316L57.7379 20.1743H61.6474L57.1179 36.3692V44.1503H53.2084V36.3692H53.1768V36.3628ZM84.2063 26.6459V44.1503H81.1192L80.7902 42.0121H80.689C79.8666 43.6252 78.5887 44.4413 76.9186 44.4413C75.7673 44.4413 74.9133 44.0491 74.3566 43.2963C73.7936 42.5371 73.5342 41.3541 73.5342 39.7157V26.6459H77.4753V39.4879C77.4469 40.0565 77.5351 40.6249 77.7347 41.158C77.81 41.3173 77.9321 41.4499 78.0847 41.5381C78.2373 41.6262 78.4131 41.6658 78.5888 41.6515C78.9432 41.6431 79.287 41.5285 79.5756 41.3225C79.8788 41.136 80.119 40.8627 80.2652 40.5381V26.6459H84.2063ZM104.399 26.6459V44.1503H101.312L100.983 42.0121H100.882C100.06 43.6252 98.7817 44.4413 97.1116 44.4413C95.9602 44.4413 95.1062 44.0491 94.5495 43.2963C93.9865 42.5371 93.7271 41.3541 93.7271 39.7157V26.6459H97.6683V39.4879C97.6398 40.0565 97.7281 40.6249 97.9277 41.158C98.003 41.3173 98.125 41.4499 98.2776 41.5381C98.4302 41.6262 98.606 41.6658 98.7817 41.6515C99.1361 41.6431 99.4799 41.5285 99.7686 41.3225C100.072 41.136 100.312 40.8627 100.458 40.5381V26.6459H104.399ZM94.9101 23.3564H91.0006V44.1503H87.1606V23.3627H83.2511V20.1743H94.9101V23.3627V23.3564ZM117.431 29.4358C117.203 28.354 116.811 27.5379 116.286 27.0382C115.673 26.5188 114.887 26.2479 114.085 26.279C113.357 26.2756 112.645 26.4965 112.048 26.9116C111.429 27.3056 110.93 27.8613 110.605 28.5185H110.574V19.2887H106.797V44.1503H110.048L110.441 42.5055H110.536C110.844 43.1032 111.324 43.5946 111.915 43.9162C112.541 44.2547 113.24 44.4349 113.952 44.4413C114.569 44.4559 115.178 44.2902 115.702 43.9643C116.227 43.6385 116.645 43.1667 116.906 42.6067C117.532 41.3921 117.855 39.45 117.855 36.8563V34.0981C117.832 32.5355 117.691 30.9768 117.431 29.4358ZM113.825 36.5653C113.825 37.5458 113.787 38.5643 113.661 39.5512C113.619 40.1029 113.436 40.6346 113.129 41.0948C113.011 41.2402 112.861 41.3567 112.692 41.4356C112.522 41.5146 112.336 41.5538 112.149 41.5502C111.838 41.5606 111.53 41.4816 111.263 41.3225C110.989 41.1524 110.762 40.915 110.605 40.633V30.72C110.729 30.2727 110.967 29.8652 111.295 29.537C111.428 29.391 111.59 29.2746 111.771 29.195C111.952 29.1155 112.147 29.0747 112.345 29.0752C112.705 29.0752 113.066 29.2396 113.262 29.537C113.528 30.0304 113.692 30.5491 113.724 31.1122C113.819 32.1623 113.85 33.2124 113.85 34.2626L113.825 36.5653Z" fill="#BFF202"/>
</svg>
